<?xml version="1.0" standalone="no"?>
<!DOCTYPE svg PUBLIC "-//W3C//DTD SVG 1.1//EN" "http://www.w3.org/Graphics/SVG/1.1/DTD/svg11.dtd" >
<svg xmlns="http://www.w3.org/2000/svg">
<metadata>
This is a custom SVG webfont generated by Font Squirrel.
Copyright   :  2008 Microsoft Corporation All Rights Reserved
Foundry     : Microsoft Corporation
Foundry URL : httpwwwmicrosoftcomtypographyfonts
</metadata>
<defs>
<font id="SegoeUINegretacursiva" horiz-adv-x="1180" >
<font-face units-per-em="2048" ascent="1638" descent="-410" />
<missing-glyph horiz-adv-x="563" />
<glyph unicode=" "  horiz-adv-x="563" />
<glyph unicode="&#x09;" horiz-adv-x="563" />
<glyph unicode="&#xa0;" horiz-adv-x="563" />
<glyph unicode="!" horiz-adv-x="709" d="M96 133q0 39 15 71.5t41 55t61 35t76 12.5q38 0 70 -12t55.5 -33t37 -49.5t13.5 -62.5q0 -39 -15 -70.5t-40.5 -54.5t-60.5 -35.5t-75 -12.5q-38 0 -70.5 12t-56.5 33t-37.5 49.5t-13.5 61.5zM207 446l172 988h332l-248 -988h-256z" />
<glyph unicode="&#x22;" horiz-adv-x="1010" d="M303 1452h262l-30 -444h-203zM698 1452h263l-31 -444h-201z" />
<glyph unicode="#" horiz-adv-x="1171" d="M63 461l37 180h189l53 248h-203l35 180h205l74 356h204l-73 -356h229l76 356h203l-74 -356h184l-39 -180h-184l-55 -248h206l-45 -180h-198l-78 -346h-201l74 346h-229l-74 -346h-201l72 346h-187zM489 641h232l55 248h-231z" />
<glyph unicode="$" d="M63 82l54 252q34 -21 75.5 -39.5t86 -33.5t89.5 -26t87 -16l82 383q-72 35 -133 75t-104.5 89.5t-68 111t-24.5 138.5q0 87 31 163.5t94 134t158.5 92.5t224.5 38l37 176h145l-39 -182q38 -3 77.5 -10t77.5 -17t71.5 -21t58.5 -22l-51 -244q-57 29 -127 53.5t-154 36.5 l-84 -395q158 -71 240 -170t82 -217q0 -85 -25.5 -163.5t-84 -139t-153.5 -99t-235 -42.5l-43 -197h-143l41 201q-52 4 -102 14.5t-95 23.5t-82.5 26.5t-63.5 25.5zM479 1042q0 -58 30.5 -94.5t84.5 -70.5l72 335q-47 -1 -82 -15.5t-58.5 -38t-35 -53.5t-11.5 -63zM598 217 q47 2 81 18.5t56 41.5t32.5 56t10.5 62q0 22 -5.5 41t-18 36.5t-33 35t-51.5 35.5z" />
<glyph unicode="%" horiz-adv-x="1778" d="M170 1018q0 43 9.5 92t29.5 97.5t52 93t77 78.5t105 54.5t135 20.5t133.5 -22t99 -61.5t61.5 -96t21 -125.5t-22 -146.5t-70.5 -143.5t-124.5 -109t-184 -43q-90 0 -151.5 29t-99.5 74t-54.5 100t-16.5 108zM182 0l1239 1434h246l-1239 -1434h-246zM385 1018q0 -28 7 -53 t21.5 -44t36 -29.5t50.5 -10.5q44 0 77 24.5t55.5 62.5t34 84.5t11.5 90.5q0 25 -5.5 50t-18 44.5t-33.5 32t-52 12.5q-48 0 -82.5 -26.5t-57 -66t-33.5 -85.5t-11 -86zM963 289q0 43 9 92t29.5 98t52 93.5t77 79t105 55t134.5 20.5t134 -22t99.5 -62t61.5 -96.5t21 -126.5 q0 -45 -9.5 -95.5t-30 -99.5t-52 -93.5t-76 -78t-102.5 -53.5t-130 -20q-90 0 -151.5 28.5t-99.5 73t-55 99.5t-17 108zM1178 289q0 -28 7 -52.5t21 -43t35.5 -29t50.5 -10.5q44 0 77 24t55.5 62t34 84.5t11.5 91.5q0 24 -5.5 48.5t-18 44t-33 32t-51.5 12.5 q-48 0 -82.5 -26.5t-57 -66t-33.5 -85.5t-11 -86z" />
<glyph unicode="&#x26;" horiz-adv-x="1641" d="M-1 385q0 99 38 174t100.5 131.5t143 96t165.5 68.5q-21 18 -42 43.5t-38 57.5t-27.5 70t-10.5 80q0 84 33 149.5t94 110.5t147.5 68.5t192.5 23.5q90 0 164 -21t126 -60t80.5 -94t28.5 -123q0 -72 -28 -125.5t-73.5 -92.5t-103.5 -66.5t-119 -49.5q32 -16 68 -48.5 t70.5 -74t64.5 -88t51 -91.5q61 56 111 121t85 136.5t54.5 148t19.5 155.5q0 10 -0.5 19t-1.5 17h269q3 -22 3 -45q0 -74 -19 -147.5t-51 -144.5t-74.5 -137.5t-89.5 -126t-96 -110.5t-95 -91q39 -55 82 -78t95 -23q47 0 88.5 9t85.5 24l-42 -244q-41 -14 -90.5 -22 t-110.5 -8q-56 0 -101.5 15t-83.5 41.5t-69.5 62t-60.5 75.5q-38 -30 -91.5 -64t-121.5 -63t-150 -48t-177 -19q-115 0 -206.5 29t-155 82.5t-97.5 128.5t-34 168zM323 412q0 -42 15.5 -77t43.5 -60.5t67 -39.5t85 -14q101 0 201.5 40.5t187.5 109.5q-54 128 -134.5 216.5 t-167.5 132.5q-48 -18 -101 -44.5t-96.5 -63.5t-72 -86t-28.5 -114zM605 1097q0 -48 25 -83.5t60 -58.5q33 11 71 25t70 35t53.5 50.5t21.5 71.5q0 49 -35 79.5t-88 30.5q-34 0 -66.5 -9t-57 -28t-39.5 -47t-15 -66z" />
<glyph unicode="'" horiz-adv-x="600" d="M299 1452h262l-33 -442h-200z" />
<glyph unicode="(" horiz-adv-x="758" d="M156 315q0 168 36 322t104 294.5t166 266t222 236.5h272q-118 -123 -215.5 -253t-167 -271.5t-107.5 -297t-38 -329.5q0 -75 8.5 -153t25.5 -155.5t43.5 -151t63.5 -138.5h-245q-42 65 -73.5 143.5t-52.5 161t-31.5 166t-10.5 159.5z" />
<glyph unicode=")" horiz-adv-x="758" d="M-199 -315q118 122 215.5 251.5t167.5 271t108 297t38 329.5q0 75 -8.5 153t-25.5 155.5t-44 151.5t-64 140h246q42 -65 73.5 -143.5t52.5 -161.5t31.5 -166.5t10.5 -159.5q0 -168 -36 -322t-104.5 -294t-166.5 -265.5t-221 -236.5h-273z" />
<glyph unicode="*" horiz-adv-x="932" d="M164 1053l72 202l249 -108l-43 287h234l-43 -287l252 108l71 -202l-274 -37l199 -211l-185 -125l-137 254l-137 -254l-182 125l198 211z" />
<glyph unicode="+" horiz-adv-x="1450" d="M258 485v203h385v385h203v-385h385v-203h-385v-385h-203v385h-385z" />
<glyph unicode="," horiz-adv-x="555" d="M-109 -254l232 506h297l-270 -506h-259z" />
<glyph unicode="-" horiz-adv-x="827" d="M119 436l47 221h547l-47 -221h-547z" />
<glyph unicode="." horiz-adv-x="555" d="M14 131q0 38 15 70t41 54.5t61 35t76 12.5q38 0 70.5 -12t56 -33t36.5 -50t13 -63q0 -38 -15 -69.5t-40.5 -54t-60 -34.5t-74.5 -12q-39 0 -71.5 11.5t-56.5 32.5t-37.5 49.5t-13.5 62.5z" />
<glyph unicode="/" horiz-adv-x="909" d="M-225 -238l1052 1672h318l-1053 -1672h-317z" />
<glyph unicode="0" d="M80 465q0 106 18 221t53.5 225t89 208t124.5 171q81 85 177.5 126.5t221.5 41.5q105 0 183 -35.5t129 -97t76.5 -144t25.5 -177.5q0 -115 -18 -237.5t-54 -239t-90.5 -218.5t-128.5 -176q-78 -78 -170 -118t-213 -40q-90 0 -167.5 30.5t-134.5 91.5t-89.5 153t-32.5 215z M389 432q0 -106 38.5 -159.5t98.5 -53.5q34 0 66.5 15t60.5 47q28 30 54.5 80t50.5 112t44 132t35 141.5t23 141t8 128.5q0 103 -34 152t-91 49q-72 0 -135 -66q-32 -33 -60.5 -86t-53 -116.5t-44 -134t-33 -139t-21 -131.5t-7.5 -112z" />
<glyph unicode="1" d="M39 0l55 250h295l191 893l-320 -66l55 256l648 125l-256 -1208h292l-55 -250h-905z" />
<glyph unicode="2" d="M-14 0l55 256l514 406q76 59 131.5 107.5t92 93t54 87t17.5 90.5q0 33 -11 63t-35.5 53t-62.5 36.5t-92 13.5q-50 0 -100 -10.5t-97.5 -28t-91 -40.5t-81.5 -48l63 289q27 14 67.5 29.5t91 29t110 22.5t124.5 9q108 0 189 -26.5t135 -74.5t81 -114.5t27 -146.5 q0 -86 -27.5 -160t-79 -142t-125 -133t-165.5 -133l-354 -262v-4h571l-57 -262h-944z" />
<glyph unicode="3" d="M35 57l55 256q24 -15 58.5 -32t76.5 -31.5t90 -23.5t99 -9q84 0 139.5 19t88.5 49t46.5 68t13.5 75q0 42 -15.5 76.5t-49.5 59t-86.5 37.5t-126.5 13h-123l51 242h152q71 0 127.5 14t96.5 40.5t61.5 65.5t21.5 89q0 32 -11 59.5t-35 48t-62 32.5t-93 12q-94 0 -171.5 -23 t-133.5 -49l55 256q25 8 58.5 17.5t77.5 18.5t98 15t119 6q107 0 185 -26.5t129 -72t76 -107.5t25 -134q0 -67 -23 -130t-69.5 -114.5t-116 -88.5t-163.5 -52v-4q63 -12 112 -39t82 -66.5t50.5 -91t17.5 -112.5q0 -84 -32 -164t-102.5 -142.5t-184 -100.5t-277.5 -38 q-61 0 -117.5 7t-106 18.5t-90.5 26.5t-73 30z" />
<glyph unicode="4" d="M-18 305l41 199l788 930h326l-193 -904h172l-47 -225h-172l-63 -305h-293l65 305h-624zM315 530h338l97 441q8 35 16 71.5t16 65.5h-6q-14 -23 -32.5 -51.5t-43.5 -59.5z" />
<glyph unicode="5" d="M49 47l55 256q25 -16 61 -31.5t78 -27.5t86 -19.5t85 -7.5q87 0 146 24t95 60t52 78.5t16 79.5q0 45 -13.5 81t-45 60.5t-81.5 37.5t-124 13q-31 0 -66 -1.5t-68.5 -3.5t-64 -5t-51.5 -6l172 799h797l-56 -258h-526l-61 -287q18 2 32.5 3t34.5 1q113 0 195 -31 t135.5 -84.5t79.5 -126t26 -155.5q0 -54 -14 -114t-44.5 -117.5t-78.5 -110t-117 -92.5t-160 -63.5t-206 -23.5q-57 0 -112 6t-104 15.5t-88 22.5t-65 28z" />
<glyph unicode="6" d="M100 514q0 122 23.5 237t67.5 217.5t108.5 188.5t146.5 150q97 74 214.5 112.5t244.5 38.5q99 0 170 -14.5t111 -30.5l-56 -258q-43 26 -104.5 44t-136.5 18q-72 0 -137.5 -25t-114.5 -64q-37 -30 -69.5 -72t-59 -89.5t-45.5 -98.5t-31 -100h4q26 34 60 62t74 48.5t85 32 t93 11.5q83 0 147.5 -28t109 -79.5t68 -125t23.5 -165.5q0 -98 -33.5 -196t-100 -176t-164.5 -126.5t-227 -48.5q-106 0 -192.5 34.5t-148.5 102.5t-96 168.5t-34 231.5zM408 432q0 -100 47.5 -154.5t126.5 -54.5q51 0 90 24t66 63t41 88t14 98q0 38 -9 73t-29 61.5 t-52.5 42t-79.5 15.5q-50 0 -90 -21t-67.5 -56.5t-42.5 -81.5t-15 -97z" />
<glyph unicode="7" d="M121 0l753 1176h-657l55 258h1002l-35 -162l-764 -1272h-354z" />
<glyph unicode="8" d="M39 352q0 155 96.5 254.5t274.5 151.5q-42 27 -74 62t-53.5 74t-32 81t-10.5 84q0 86 34 159t99.5 126.5t160.5 83.5t216 30q110 0 192 -29t137.5 -78t83 -112.5t27.5 -132.5q0 -143 -90.5 -238.5t-253.5 -136.5q106 -51 167.5 -135.5t61.5 -200.5q0 -92 -40 -169.5 t-113 -134t-176.5 -88.5t-231.5 -32q-111 0 -199.5 27.5t-149.5 77.5t-93.5 120t-32.5 156zM334 369q0 -27 11 -57t35 -55t63 -41.5t94 -16.5q56 0 100.5 15t76 41.5t48 62.5t16.5 79q0 35 -12.5 68.5t-36 63.5t-56 56t-71.5 44q-136 -34 -202 -104t-66 -156zM539 1049 q0 -59 29.5 -108t86.5 -89q112 31 174 86.5t62 144.5q0 32 -11 59t-32 46.5t-50.5 31t-66.5 11.5q-93 0 -142.5 -50.5t-49.5 -131.5z" />
<glyph unicode="9" d="M70 23l45 256q19 -11 45.5 -21.5t58 -19t67.5 -14t74 -5.5q78 0 142 22t116 62q75 59 126 153t79 210h-4q-60 -76 -134.5 -116t-168.5 -40q-91 0 -158.5 33t-112.5 88.5t-67 128t-22 151.5q0 58 12.5 121t40 124t69.5 116t101.5 97t136.5 66.5t174 24.5 q114 0 200.5 -40.5t145.5 -112.5t89 -170.5t30 -214.5q0 -103 -19 -212t-59.5 -212.5t-103.5 -196.5t-150 -164q-50 -41 -102.5 -71.5t-110.5 -50t-123.5 -29t-140.5 -9.5q-94 0 -166 14.5t-110 31.5zM465 940q0 -35 8.5 -70.5t28 -64t51.5 -46.5t78 -18q52 0 93 21t69.5 56 t43.5 82t15 99q0 39 -11.5 77.5t-33 68.5t-53.5 48.5t-74 18.5q-54 0 -94 -24.5t-67 -63.5t-40.5 -87.5t-13.5 -96.5z" />
<glyph unicode=":" horiz-adv-x="555" d="M14 131q0 38 15 70t41 54.5t61 35t76 12.5q38 0 70.5 -12t56 -33t36.5 -50t13 -63q0 -38 -15 -69.5t-40.5 -54t-60 -34.5t-74.5 -12q-39 0 -71.5 11.5t-56.5 32.5t-37.5 49.5t-13.5 62.5zM168 862q0 39 14.5 71.5t40 55t61 35t76.5 12.5q38 0 70.5 -12t56 -33t37 -49.5 t13.5 -62.5q0 -39 -15 -70.5t-41.5 -54t-61.5 -35t-75 -12.5q-38 0 -70.5 12t-56 32.5t-36.5 49t-13 61.5z" />
<glyph unicode=";" horiz-adv-x="555" d="M-137 -254l229 506h299l-272 -506h-256zM168 862q0 39 14.5 71.5t40 55t61 35t76.5 12.5q38 0 70.5 -12t56 -33t37 -49.5t13.5 -62.5q0 -39 -15 -70.5t-41.5 -54t-61.5 -35t-75 -12.5q-38 0 -70.5 12t-56 32.5t-36.5 49t-13 61.5z" />
<glyph unicode="&#x3c;" horiz-adv-x="1450" d="M229 504v164l934 445v-238l-665 -287v-4l665 -268v-235z" />
<glyph unicode="=" horiz-adv-x="1450" d="M258 266v203h973v-203h-973zM258 700v205h973v-205h-973z" />
<glyph unicode="&#x3e;" horiz-adv-x="1450" d="M307 81v237l668 267v4l-668 286v238l936 -444v-162z" />
<glyph unicode="?" horiz-adv-x="920" d="M147 133q0 39 14.5 71.5t40.5 55t61 35t77 12.5q38 0 70 -12t55.5 -33t37 -49.5t13.5 -62.5q0 -39 -15 -70.5t-40.5 -54.5t-60.5 -35.5t-76 -12.5q-38 0 -70.5 12t-56 33t-37 49.5t-13.5 61.5zM203 1124l57 277q31 14 69.5 26.5t81.5 22t88.5 15t90.5 5.5 q113 0 190.5 -29.5t125 -77t68.5 -108t21 -122.5q0 -58 -16 -112t-50.5 -105.5t-89.5 -101t-132 -97.5q-51 -31 -85.5 -61t-57 -63.5t-36 -72t-22.5 -86.5h-260q13 65 29 121t41.5 104.5t62.5 90.5t92 79q54 38 93.5 69.5t65 60t38 57t12.5 59.5q0 29 -11 54t-32.5 44 t-54 30t-74.5 11q-82 0 -161 -24.5t-144 -65.5z" />
<glyph unicode="@" horiz-adv-x="1954" d="M154 532q0 129 31 247.5t90 221t143.5 185.5t191.5 142.5t234.5 91.5t271.5 32q191 0 331.5 -50.5t232 -138t136 -204t44.5 -248.5q0 -79 -15.5 -156t-45.5 -147.5t-75 -130.5t-104 -103.5t-132.5 -68.5t-160.5 -25q-61 0 -104 15t-69 38t-38 50t-12 51q0 11 0.5 16.5 t3.5 18.5h-6q-53 -90 -121.5 -139.5t-159.5 -49.5q-62 0 -110 25.5t-80.5 70t-49 104.5t-16.5 130q0 67 15 135t44 130.5t70.5 116.5t95.5 94.5t118.5 63.5t138.5 23q41 0 72.5 -9.5t53.5 -25t36 -35t20 -38.5h4l24 90h226q-11 -37 -27 -92.5t-33.5 -119t-35 -128.5 t-31.5 -122t-22.5 -100t-8.5 -61q0 -42 17 -58t51 -16q48 0 94 35t82 94t58 138.5t22 167.5q0 90 -28.5 176.5t-93 153.5t-170 108t-259.5 41q-152 0 -283.5 -53t-228 -150t-152 -232.5t-55.5 -299.5q0 -115 32.5 -215t103 -174t182.5 -116t270 -42q84 0 160.5 9t139 22.5 t108.5 29t71 27.5l-35 -193q-22 -10 -66.5 -22.5t-106 -24t-137 -19t-159.5 -7.5q-191 0 -338 51.5t-247 146t-151.5 227t-51.5 295.5zM801 518q0 -77 30 -118.5t82 -41.5q42 0 80.5 27.5t70.5 74t57 109.5t40 133q5 22 7.5 43t2.5 39q0 57 -30.5 87t-79.5 30 q-58 0 -106 -35t-82.5 -90t-53 -123t-18.5 -135z" />
<glyph unicode="A" horiz-adv-x="1440" d="M-102 0l827 1434h385l205 -1434h-330l-41 319h-514l-168 -319h-364zM551 567h369l-52 484q-1 16 -1.5 35.5t0 37.5t1.5 32.5t2 21.5h-6q-2 -9 -7 -23t-11.5 -30.5t-15 -34.5t-17.5 -35z" />
<glyph unicode="B" horiz-adv-x="1327" d="M49 0l305 1434h508q117 0 199.5 -24.5t134.5 -68t76 -103t24 -128.5q0 -67 -22 -125t-65.5 -104.5t-107.5 -79.5t-149 -49v-4q68 -10 119 -36.5t85.5 -65.5t51.5 -88t17 -105q0 -97 -38 -179.5t-114 -143.5t-189.5 -95.5t-265.5 -34.5h-569zM424 238h180q74 0 127 16.5 t86.5 45.5t49.5 67.5t16 83.5q0 75 -52 120t-155 45h-170zM555 856h152q58 0 104 13.5t78.5 38.5t49.5 60.5t17 78.5q0 35 -10.5 62.5t-33.5 46.5t-60 29.5t-90 10.5h-133z" />
<glyph unicode="C" horiz-adv-x="1300" d="M104 598q0 113 24 220.5t72.5 203t122 175.5t173 138t226 90.5t279.5 32.5q58 0 112 -6t103 -15.5t90.5 -21t73.5 -22.5l-67 -306q-30 16 -64.5 32t-75.5 28.5t-88.5 20.5t-103.5 8q-130 0 -229.5 -44.5t-167.5 -119.5t-103 -174t-35 -209q0 -91 27 -161t77 -117.5 t120 -72t157 -24.5q55 0 103 7.5t91 20t81.5 28.5t73.5 34l-68 -305q-74 -31 -163.5 -47.5t-201.5 -16.5q-150 0 -269 44.5t-201 126.5t-125.5 196.5t-43.5 255.5z" />
<glyph unicode="D" horiz-adv-x="1542" d="M49 0l305 1434h504q158 0 277.5 -43t200.5 -119.5t122 -183t41 -234.5q0 -113 -23 -220.5t-69.5 -202.5t-117.5 -174t-167.5 -136t-219.5 -89t-273 -32h-580zM430 262h197q122 0 220 40.5t167 115t106 179t37 232.5q0 80 -22.5 143.5t-69 107.5t-117.5 67.5t-168 23.5 h-157z" />
<glyph unicode="E" horiz-adv-x="1085" d="M49 0l305 1434h826l-56 -263h-501l-68 -323h467l-57 -264h-465l-70 -322h535l-56 -262h-860z" />
<glyph unicode="F" horiz-adv-x="1067" d="M49 0l305 1434h830l-56 -267h-505l-74 -346h465l-58 -266h-464l-117 -555h-326z" />
<glyph unicode="G" horiz-adv-x="1452" d="M111 612q0 112 25 218.5t74.5 200.5t124 172.5t174 135t224.5 88t275 31.5q68 0 129.5 -7.5t115.5 -19.5t99.5 -26.5t81.5 -28.5l-64 -295q-31 21 -72 40.5t-89.5 34t-103 23.5t-112.5 9q-125 0 -225.5 -40.5t-171 -114t-108 -177t-37.5 -229.5q0 -91 25 -163t71.5 -121 t112.5 -75t147 -26q54 0 89.5 6.5t64.5 15.5l61 291h-291l55 258h613l-154 -727q-43 -21 -94 -40.5t-111 -35.5t-129 -25.5t-149 -9.5q-154 0 -275.5 46t-204.5 130t-127 201.5t-44 259.5z" />
<glyph unicode="H" horiz-adv-x="1565" d="M49 0l305 1434h326l-123 -572h590l123 572h325l-305 -1434h-325l122 580h-589l-123 -580h-326z" />
<glyph unicode="I" horiz-adv-x="649" d="M49 0l303 1434h326l-303 -1434h-326z" />
<glyph unicode="J" horiz-adv-x="907" d="M-86 18l59 299q15 -12 36 -23.5t44.5 -20t47.5 -14t46 -5.5q113 0 184.5 79.5t106.5 248.5l183 852h325l-184 -861q-29 -138 -80 -248.5t-128 -188.5t-181.5 -119.5t-241.5 -41.5q-24 0 -55 4t-61.5 10t-57.5 14t-43 15z" />
<glyph unicode="K" horiz-adv-x="1333" d="M49 0l305 1434h326l-141 -666h4q11 15 25.5 33t23.5 30q20 25 61.5 72.5t93 106t108.5 122.5t108.5 122.5t92 106t58.5 73.5h395q-24 -30 -75 -85.5t-115.5 -123t-136 -141t-136 -141t-115.5 -123t-75 -85.5q13 -33 43 -91.5t68.5 -129t82 -147t82 -147t68.5 -129 t43 -91.5h-393q-9 26 -32 75t-53.5 109t-64.5 125.5t-64.5 125.5t-54 108.5t-32.5 74.5q-8 17 -15 38.5t-10 33.5h-4l-145 -690h-326z" />
<glyph unicode="L" horiz-adv-x="1049" d="M49 0l305 1434h326l-248 -1168h529l-56 -266h-856z" />
<glyph unicode="M" horiz-adv-x="1781" d="M48 0l305 1434h384l147 -498q7 -24 13 -51.5t10 -55t6 -53t2 -45.5h5q11 22 23.5 49.5t26 56t28.5 55t30 46.5l366 496h416l-305 -1434h-290l182 858q30 137 78 307h-8q-14 -32 -29.5 -64t-30.5 -60.5t-28 -51t-23 -36.5l-384 -523h-226l-149 513q-5 15 -9.5 47.5 t-4.5 67.5v107h-9q-14 -94 -27.5 -173t-24.5 -133l-183 -859h-291z" />
<glyph unicode="N" horiz-adv-x="1636" d="M49 0l303 1434h320l430 -877q5 -11 12.5 -26.5t15 -32t14 -32.5t9.5 -28h4q1 15 3 33.5t5 37.5t6.5 37t6.5 32l182 856h305l-303 -1434h-295l-449 911q-6 12 -13 28t-14 32.5t-13 31.5t-9 27h-6q-5 -37 -11 -83t-17 -91l-183 -856h-303z" />
<glyph unicode="O" horiz-adv-x="1554" d="M111 592q0 93 16 183.5t48.5 174t81 159t112.5 138.5q50 48 108 86.5t125 66.5t144 43t165 15q133 0 243.5 -42t189.5 -121.5t123 -194t44 -258.5q0 -86 -15 -173t-44.5 -168.5t-74 -156.5t-103.5 -137q-50 -53 -109 -96t-128.5 -73t-150.5 -46.5t-175 -16.5 q-142 0 -253.5 47t-188.5 129.5t-117.5 195.5t-40.5 245zM453 596q0 -81 20.5 -145t58.5 -107.5t91.5 -66.5t119.5 -23q82 0 156.5 36t130.5 107q35 42 61 94.5t43 109.5t26 116t9 114q0 81 -20.5 145t-58.5 108.5t-92.5 68t-123.5 23.5q-80 0 -152 -37t-128 -103 q-34 -40 -60 -92t-44 -110t-27.5 -118.5t-9.5 -119.5z" />
<glyph unicode="P" horiz-adv-x="1290" d="M49 0l305 1434h492q122 0 211 -31.5t146.5 -86t85.5 -129t28 -161.5q0 -106 -37 -202.5t-115 -169.5t-198 -116.5t-287 -43.5h-201l-104 -494h-326zM532 739h148q77 0 132.5 21.5t91.5 58t53.5 84.5t17.5 101q0 83 -56 132.5t-165 49.5h-127z" />
<glyph unicode="Q" horiz-adv-x="1554" d="M111 590q0 93 16 183.5t48 174.5t80.5 159.5t113.5 139.5q48 45 104 84t123 67t145.5 44t171.5 16q134 0 244 -42.5t189 -122.5t122 -195t43 -260q0 -128 -33.5 -256t-99.5 -239t-163.5 -196.5t-225.5 -128.5q40 -53 78 -87t80 -54t90 -28t107 -8q32 0 74.5 6.5 t74.5 18.5l-58 -272q-34 -9 -92 -18t-139 -9q-98 0 -173.5 32t-138.5 87.5t-119 130t-114 160.5q-133 9 -235 60.5t-171.5 133.5t-105.5 189.5t-36 229.5zM453 596q0 -81 20.5 -145t58.5 -107.5t91.5 -66.5t119.5 -23q85 0 160 37.5t127 103.5q34 42 60 94t43.5 108 t26.5 115.5t9 116.5q0 81 -19.5 145t-57 109t-91.5 69t-122 24q-81 0 -154 -35.5t-127 -100.5q-36 -43 -63 -95t-45.5 -109.5t-27.5 -118.5t-9 -121z" />
<glyph unicode="R" horiz-adv-x="1311" d="M49 0l305 1434h490q125 0 213 -29.5t143 -80t80 -116.5t25 -139q0 -91 -33 -164.5t-90 -127.5t-133.5 -88t-163.5 -46v-4q62 -20 106 -76t66 -149l100 -414h-346l-78 369q-18 89 -63 134.5t-123 45.5h-55l-117 -549h-326zM543 793h131q74 0 128 18.5t89 49t52.5 71 t17.5 84.5q0 83 -49 129.5t-148 46.5h-135z" />
<glyph unicode="S" horiz-adv-x="1100" d="M29 76l55 284q37 -27 80.5 -51t91 -42t98.5 -28t103 -10q57 0 97 12.5t65 34.5t36 51t11 62t-10.5 59.5t-34.5 51t-63.5 51t-96.5 59.5q-61 34 -111 73.5t-86 88t-56 108t-20 132.5q0 83 31 163t97 143t168.5 101.5t244.5 38.5q59 0 114 -6.5t105 -17.5t94 -25t80 -29 l-55 -278q-31 19 -68.5 37.5t-80 32.5t-89.5 23t-98 9q-57 0 -96 -15.5t-62 -38.5t-33 -49.5t-10 -49.5q0 -33 10.5 -60.5t33 -53t59 -52t88.5 -58.5q68 -42 120.5 -84.5t89.5 -91t56 -105.5t19 -128q0 -41 -9.5 -90t-32.5 -98.5t-63.5 -95.5t-101.5 -81t-146.5 -56.5 t-199.5 -21.5q-64 0 -124.5 8.5t-115 23t-101.5 32.5t-83 37z" />
<glyph unicode="T" horiz-adv-x="1202" d="M164 1171l57 263h1139l-57 -263h-404l-248 -1171h-325l247 1171h-409z" />
<glyph unicode="U" horiz-adv-x="1481" d="M150 459q0 52 8 114.5t20 116.5l160 744h326l-162 -746q-11 -53 -20 -106t-9 -90q0 -58 17.5 -102.5t49 -74.5t74 -45.5t91.5 -15.5q57 0 106 17t88 56t69 103.5t50 159.5l182 844h326l-183 -850q-30 -141 -77 -254t-124.5 -192t-192.5 -121t-281 -42q-120 0 -216 33 t-163 95.5t-103 152t-36 203.5z" />
<glyph unicode="V" horiz-adv-x="1366" d="M199 1434h331l97 -992q3 -36 3 -72q0 -3 1 -5q0 -33 -6 -62h8q9 29 23.5 65t35.5 78l498 988h356l-807 -1434h-356z" />
<glyph unicode="W" horiz-adv-x="2064" d="M201 1434h340l10 -951q1 -17 -0.5 -39t-4.5 -44t-6 -42l-5 -32h6q4 15 11 35.5t15.5 43t18 44t16.5 36.5l461 949h342l47 -961q1 -14 0.5 -32.5t-1.5 -38.5t-3 -39.5t-4 -34.5h4q4 14 10.5 34t14 41t15 41t13.5 35l397 955h338l-686 -1434h-344l-61 930q-1 15 0.5 36 t4 43t5.5 42.5t6 35.5h-4q-5 -16 -12.5 -37t-15.5 -43t-16 -42t-15 -35l-455 -930h-369z" />
<glyph unicode="X" horiz-adv-x="1341" d="M-111 0l615 739l-277 695h377l127 -441q3 -12 5.5 -27.5t4 -31.5t2 -30t0.5 -23h5q3 8 8 20.5t12 27.5t14.5 29.5t16.5 26.5l342 449h377l-590 -725l284 -709h-366l-144 455q-4 11 -6.5 26t-4 30.5t-2.5 30t-1 23.5h-4q-8 -17 -20.5 -48t-30.5 -56l-344 -461h-400z" />
<glyph unicode="Y" horiz-adv-x="1245" d="M193 1434h350l114 -545q8 -34 9.5 -63t3.5 -52h2q11 28 24.5 57t28.5 54l350 549h363l-662 -914l-108 -520h-326l109 514z" />
<glyph unicode="Z" horiz-adv-x="1243" d="M-70 0l39 186l922 985h-660l56 263h1102l-39 -181l-910 -991h701l-56 -262h-1155z" />
<glyph unicode="[" horiz-adv-x="758" d="M53 -326l373 1760h473l-41 -201h-219l-289 -1358h219l-43 -201h-473z" />
<glyph unicode="\" horiz-adv-x="895" d="M170 1434h274l342 -1672h-270z" />
<glyph unicode="]" horiz-adv-x="758" d="M-139 -326l43 201h215l289 1358h-218l41 201h474l-373 -1760h-471z" />
<glyph unicode="^" horiz-adv-x="1450" d="M250 610l430 848h162l452 -848h-241l-287 586h-6l-268 -586h-242z" />
<glyph unicode="_" horiz-adv-x="850" d="M-176 -297l24 119h850l-24 -119h-850z" />
<glyph unicode="`" horiz-adv-x="899" d="M291 1511h264l209 -325h-213z" />
<glyph unicode="a" horiz-adv-x="1214" d="M61 371q0 47 10.5 115.5t38 144t76.5 150t125.5 134.5t185 97t255.5 37q57 0 114.5 -4.5t113 -12t107.5 -17.5t97 -20l-140 -657q-7 -31 -13.5 -75t-12 -91.5t-9 -93t-3.5 -78.5h-320q0 15 1.5 38.5t3.5 48t4.5 48t4.5 39.5h-4q-29 -39 -60 -75t-69 -63.5t-84.5 -44 t-107.5 -16.5q-75 0 -133.5 27t-98.5 78t-61 124.5t-21 166.5zM379 389q0 -37 7.5 -68.5t23.5 -54.5t39.5 -36t54.5 -13q57 0 101.5 33t78 84.5t56 116t36.5 127.5l53 239q-23 5 -51 7.5t-53 2.5q-69 0 -121 -23t-90.5 -60t-64.5 -84t-41.5 -95.5t-22 -94.5t-6.5 -81z" />
<glyph unicode="b" horiz-adv-x="1214" d="M37 86l303 1430h319l-96 -451q-5 -21 -11 -48l-12 -54q-6 -27 -12.5 -51.5t-11.5 -41.5h8q29 39 62 72t72.5 57t85.5 37t100 13q68 0 124.5 -24t97.5 -72t64 -120t23 -167q0 -60 -12 -134.5t-41.5 -151.5t-79.5 -149.5t-125.5 -129.5t-179.5 -91.5t-242 -34.5 q-58 0 -117.5 7.5t-116 22t-108.5 35t-94 46.5zM385 223q22 -11 57.5 -18.5t75.5 -7.5q51 0 94 18.5t78.5 51t62.5 75t45.5 91t28 99.5t9.5 99q0 81 -32 128.5t-104 47.5q-48 0 -89.5 -28t-75 -74.5t-58.5 -106.5t-39 -125z" />
<glyph unicode="c" horiz-adv-x="946" d="M61 397q0 86 19.5 167.5t56.5 153.5t91.5 133t125 105t156 68.5t184.5 24.5q46 0 87 -5.5t75 -14t60 -19t42 -19.5l-57 -248q-34 26 -88 45t-117 19q-73 0 -132 -34t-100 -88t-63 -121t-22 -132q0 -103 48 -159t144 -56q30 0 62.5 6t64.5 16.5t61.5 23.5t53.5 28 l-49 -242q-68 -35 -145 -54.5t-154 -19.5q-100 0 -175.5 31t-126.5 87t-76.5 133.5t-25.5 170.5z" />
<glyph unicode="d" horiz-adv-x="1214" d="M61 367q0 135 45 258.5t130.5 217.5t208.5 150t280 56q40 0 81.5 -4t67.5 -9l103 480h315l-248 -1178q-7 -31 -13.5 -75t-12 -91.5t-9 -93t-3.5 -78.5h-320q0 14 1.5 37.5t4 48.5t5 48.5t3.5 37.5h-4q-31 -44 -64.5 -80t-72 -62t-83.5 -40.5t-99 -14.5q-74 0 -132.5 26 t-99.5 75.5t-62.5 123t-21.5 167.5zM379 389q0 -37 8 -68.5t23.5 -54.5t40 -36t57.5 -13q55 0 98.5 32.5t77 85t56.5 118t38 131.5l51 231q-23 6 -50.5 9t-53.5 3q-69 0 -121 -23t-90.5 -60.5t-64.5 -85t-41.5 -96t-22 -94t-6.5 -79.5z" />
<glyph unicode="e" horiz-adv-x="1065" d="M61 399q0 131 43.5 249t124 207t194 141.5t253.5 52.5q101 0 172 -24t116 -64.5t66 -92.5t21 -108q0 -79 -33.5 -145t-112 -114t-208.5 -75.5t-324 -30.5q-2 -7 -2 -11v-9q0 -31 10 -62t34.5 -56t64.5 -40.5t100 -15.5q36 0 78.5 6.5t86.5 19t87.5 30t80.5 38.5l-49 -236 q-31 -16 -71 -31t-86.5 -27t-99 -19t-107.5 -7q-116 0 -199 34t-136.5 91.5t-78.5 134.5t-25 164zM393 590h16q169 0 253 41q88 43 88 125q0 37 -27.5 61.5t-77.5 24.5q-44 0 -84.5 -19t-74 -52.5t-57.5 -80t-36 -100.5z" />
<glyph unicode="f" horiz-adv-x="768" d="M10 -340l242 1131h-174l51 233h172l33 147q42 187 156.5 278t310.5 91q51 0 102.5 -8t85.5 -19l-49 -243q-28 11 -61.5 19.5t-65.5 8.5q-71 0 -109 -39t-57 -122l-24 -113h233l-49 -233h-238l-243 -1131h-316z" />
<glyph unicode="g" horiz-adv-x="1214" d="M-33 -406l56 254q63 -42 138 -69t158 -27q78 0 136.5 21t101 62t70.5 101.5t45 139.5l18 90h-4q-26 -39 -57 -73.5t-68.5 -60.5t-83 -41.5t-102.5 -15.5q-78 0 -136.5 28.5t-98 79.5t-59.5 122t-20 157t18.5 170.5t55.5 161t93 141.5t130.5 112.5t167.5 74.5t205 27 q62 0 123.5 -4.5t120 -12t111.5 -17t98 -18.5l-185 -874q-28 -134 -75 -245t-127 -190.5t-201 -124t-297 -44.5q-97 0 -179 20.5t-153 54.5zM379 389q0 -37 7.5 -68.5t23.5 -54.5t39.5 -36t54.5 -13q40 0 73.5 16t61 43.5t49 63.5t38.5 76t29.5 81t20.5 78l53 242 q-23 5 -53.5 7.5t-64.5 2.5q-69 0 -129.5 -34t-105.5 -93t-71 -139t-26 -172z" />
<glyph unicode="h" horiz-adv-x="1225" d="M16 0l322 1516h319l-147 -689h4q37 48 81.5 88.5t94 70t102 46.5t103.5 17q125 0 190.5 -69.5t65.5 -199.5q0 -15 -3 -40t-7.5 -52t-9.5 -52.5t-9 -43.5l-125 -592h-317l123 584q6 32 12 66t6 52q0 50 -25.5 77.5t-74.5 27.5q-39 0 -82.5 -24.5t-82.5 -65.5t-70 -96 t-44 -117l-106 -504h-320z" />
<glyph unicode="i" horiz-adv-x="650" d="M79 217q0 22 2.5 49t6.5 56.5t9.5 60t11.5 58.5q4 17 13.5 62.5t22 104.5t26.5 124.5t26.5 124.5t22 104.5t13.5 62.5h320l-122 -576q-8 -35 -17 -78.5t-9 -75.5q0 -38 24 -53t55 -15q26 0 52.5 5.5t48.5 14.5q-13 -60 -25 -118.5t-25 -118.5q-18 -5 -41.5 -10t-50 -9.5 t-55 -7t-56.5 -2.5q-67 0 -114.5 17.5t-78.5 49t-45.5 75t-14.5 95.5zM272 1337q0 39 14.5 70t40 53.5t60.5 34.5t76 12q38 0 70 -11.5t55.5 -32t37 -48.5t13.5 -61q0 -39 -15 -70t-40.5 -53.5t-60 -34.5t-74.5 -12q-38 0 -70.5 11.5t-56 32t-37 48.5t-13.5 61z" />
<glyph unicode="j" horiz-adv-x="538" d="M-344 -449l51 242q9 -6 21.5 -12t27 -10.5t29.5 -7.5t27 -3q75 0 127 61t81 199l213 1004h320l-207 -971q-23 -108 -61.5 -205t-101 -170t-152.5 -116t-215 -43q-44 0 -88 9t-72 23zM272 1337q0 39 14.5 70t40 53.5t60.5 34.5t76 12q38 0 70 -11.5t55.5 -32t37 -48.5 t13.5 -61q0 -39 -15 -70t-40.5 -53.5t-60 -34.5t-74.5 -12q-38 0 -70.5 11.5t-56 32t-37 48.5t-13.5 61z" />
<glyph unicode="k" horiz-adv-x="1151" d="M16 0l322 1516h319l-200 -936h4l407 444h375l-479 -483l264 -541h-352l-225 532h-5l-112 -532h-318z" />
<glyph unicode="l" horiz-adv-x="650" d="M79 217q0 22 2.5 49t6.5 56.5t9.5 60t11.5 58.5q3 13 13.5 63.5t26.5 124.5t35 164.5t39.5 185t39.5 185t35 164.5t26.5 124.5t13.5 63.5h320l-227 -1068q-8 -35 -17 -78.5t-9 -75.5q0 -38 24 -53t55 -15q26 0 52.5 5.5t48.5 14.5q-13 -60 -25 -118.5t-25 -118.5 q-18 -5 -41.5 -10t-50 -9.5t-55 -7t-56.5 -2.5q-67 0 -114.5 17.5t-78.5 49t-45.5 75t-14.5 95.5z" />
<glyph unicode="m" horiz-adv-x="1866" d="M16 0l152 702q9 46 18 92.5t16 89t12.5 79t8.5 61.5h312q-3 -28 -6.5 -58.5t-7 -58.5t-6.5 -49.5t-5 -30.5h4q37 48 80.5 88.5t91.5 70t99 46.5t102 17q120 0 181 -62t71 -172q38 52 83 95t96 74t106 48t112 17q127 0 191.5 -69.5t64.5 -199.5q0 -15 -3 -40t-7.5 -52 t-9.5 -52.5t-9 -43.5l-125 -592h-317l125 584q6 32 12 66t6 52q0 50 -24 77.5t-74 27.5q-38 0 -81 -26t-81.5 -68t-68 -96t-41.5 -111l-105 -506h-319l125 584q6 32 12 66t6 52q0 50 -24.5 77.5t-73.5 27.5q-39 0 -82 -26t-81 -68.5t-67 -96.5t-41 -110l-108 -506h-320z" />
<glyph unicode="n" horiz-adv-x="1225" d="M16 0l152 702q9 46 18 92.5t16 89t12.5 79t8.5 61.5h312q-3 -28 -6.5 -58.5t-7 -58.5t-6.5 -49.5t-5 -30.5h4q35 46 79 86.5t93.5 70.5t102.5 47.5t106 17.5q127 0 191.5 -70.5t64.5 -198.5q0 -15 -3 -40t-7.5 -52t-9.5 -52.5t-9 -43.5l-125 -592h-317l123 584 q6 32 12 66t6 52q0 48 -24.5 76.5t-73.5 28.5q-41 0 -85.5 -25.5t-83.5 -67.5t-68.5 -96.5t-41.5 -111.5l-106 -506h-322z" />
<glyph unicode="o" horiz-adv-x="1178" d="M61 408q0 74 15 150.5t46.5 147.5t80.5 133.5t117 109t155.5 73.5t196.5 27q107 0 189.5 -30.5t139 -87t86 -136t29.5 -177.5q0 -71 -14 -146t-44 -146.5t-77.5 -135.5t-115 -111.5t-156 -75.5t-201.5 -28q-114 0 -198.5 33t-139.5 91t-82 137.5t-27 171.5zM379 408 q0 -91 42.5 -141t110.5 -50q65 0 114.5 35t83 91.5t50.5 127.5t17 143q0 42 -10 77.5t-29.5 61t-47.5 40t-65 14.5q-63 0 -112.5 -36t-83.5 -93t-52 -128t-18 -142z" />
<glyph unicode="p" horiz-adv-x="1214" d="M-86 -471l246 1157q6 31 14 76.5t15 93.5t13 93t7 75h311q-1 -15 -3 -38.5t-5 -48.5t-6.5 -48.5t-5.5 -38.5h4q28 42 63 78t77.5 63t93 42.5t108.5 15.5q68 0 124.5 -25t97 -73.5t63 -119t22.5 -161.5q0 -84 -18 -168.5t-53.5 -162t-89.5 -144t-126 -115.5t-162.5 -77 t-199.5 -28q-40 0 -88 6t-82 15l-101 -467h-319zM375 215q12 -4 28.5 -7t34 -5.5t34.5 -4t30 -1.5q74 0 135.5 36.5t105.5 97t68.5 139.5t24.5 163q0 35 -6.5 66.5t-22.5 55.5t-41.5 38t-63.5 14q-56 0 -101 -32.5t-79 -84t-57.5 -115t-36.5 -126.5z" />
<glyph unicode="q" horiz-adv-x="1214" d="M61 369q0 63 13.5 138t44.5 150.5t82.5 146t127.5 125t178.5 87.5t235.5 33q74 0 139.5 -6t121.5 -15.5t101 -20.5t77 -20l-310 -1458h-317l90 430q5 21 11.5 48.5t13 55.5t13.5 53t11 42h-4q-28 -39 -61.5 -72.5t-72 -58t-83.5 -38.5t-96 -14q-75 0 -133.5 26.5 t-99 77.5t-62 124t-21.5 166zM379 393q0 -38 7 -70.5t22.5 -56t39.5 -36.5t58 -13q40 0 73 15.5t60 42t48.5 61.5t38 73t28.5 77.5t20 74.5l53 252q-23 6 -50 10t-58 4q-63 0 -113 -21.5t-88 -57.5t-64.5 -82t-43 -94t-24 -94.5t-7.5 -84.5z" />
<glyph unicode="r" horiz-adv-x="819" d="M16 0l140 653q10 47 19.5 97t18 98.5t15 93.5t10.5 82h313q-3 -29 -6.5 -60t-7 -59.5t-7 -51.5t-5.5 -36h4q62 115 130.5 173.5t158.5 58.5q26 0 51 -5t45 -8l-64 -303h-2q-21 11 -53.5 20t-60.5 9q-59 0 -106 -26.5t-83 -71.5t-60.5 -105.5t-39.5 -128.5l-90 -430h-320z " />
<glyph unicode="s" horiz-adv-x="899" d="M4 29l47 241q26 -14 60 -28t72.5 -25.5t79.5 -19t81 -7.5q75 0 111.5 26t36.5 71q0 38 -28 66.5t-97 60.5q-57 27 -100.5 56t-73.5 64t-45 78t-15 97q0 57 22.5 117.5t74.5 110t137.5 81t210.5 31.5q38 0 78 -3.5t78 -9.5t72 -14t60 -16l-49 -238q-21 11 -49 22t-59.5 20 t-64.5 15t-64 6q-73 0 -104.5 -28t-31.5 -68q0 -41 31 -67t82 -52q60 -29 105 -58t75 -64t45 -78.5t15 -100.5q0 -61 -25 -122t-81 -109.5t-147.5 -78.5t-224.5 -30q-38 0 -81 4t-85 11t-80.5 17t-68.5 22z" />
<glyph unicode="t" horiz-adv-x="768" d="M63 791l56 233h151l52 240l333 82l-67 -322h243l-55 -233h-239l-82 -383q-2 -13 -5 -28t-5.5 -30t-4.5 -28.5t-2 -22.5q0 -40 20 -59t66 -19q12 0 30.5 3t38 8t37.5 10.5t29 9.5l-49 -234q-18 -7 -44 -14t-57 -13t-64.5 -10t-65.5 -4q-76 0 -127 19.5t-81.5 54t-43 80.5 t-12.5 100q0 16 2 37t5.5 43t8 44.5t8.5 41.5l82 394h-158z" />
<glyph unicode="u" horiz-adv-x="1225" d="M66 244q0 15 3 40t7.5 52t9 52.5t8.5 43.5l125 592h318l-123 -578q-4 -16 -7.5 -34t-6 -35t-4 -31t-1.5 -22q0 -44 24 -70.5t70 -26.5q50 0 97 28t85 73t65.5 101t39.5 112l103 483h319l-147 -684q-9 -45 -17 -93.5t-14 -93.5t-10 -84.5t-6 -68.5h-320q3 29 6.5 59 t7.5 56.5t7 47.5t4 30h-4q-39 -49 -83.5 -89t-93 -68.5t-100 -44.5t-104.5 -16q-127 0 -192.5 70.5t-65.5 198.5z" />
<glyph unicode="v" horiz-adv-x="1092" d="M115 1024h315l41 -567q2 -19 3.5 -46t2.5 -56t1.5 -57.5t-1.5 -49.5h4q8 21 19 46.5t23 53t24.5 55t23.5 52.5l275 569h348l-592 -1024h-352z" />
<glyph unicode="w" horiz-adv-x="1628" d="M117 1024h303v-666q0 -23 -2.5 -58t-7.5 -58h6q4 10 9.5 26t11.5 33.5t12 34.5t12 29l311 659h305l19 -664q0 -11 -0.5 -28t-2 -34.5t-3.5 -33t-3 -24.5h7q3 10 8 26t11 34t12 34t10 26l268 664h307l-510 -1024h-328l-24 606q0 31 2.5 69t5.5 62h-4q-4 -15 -9.5 -32 t-12 -35t-13 -34.5t-12.5 -29.5l-285 -606h-334z" />
<glyph unicode="x" horiz-adv-x="1122" d="M-104 0l456 518l-219 506h352l84 -270q10 -26 17 -56.5t10 -50.5h4q12 22 32 51.5t36 51.5l200 274h359l-447 -510l228 -514h-351l-92 268q-8 23 -15 49.5t-13 51.5h-5q-15 -25 -30 -51t-31 -46l-203 -272h-372z" />
<glyph unicode="y" horiz-adv-x="1102" d="M-160 -453l54 244q21 -15 52 -23t62 -8q59 0 110 27.5t89 89.5l82 129l-199 1018h332l72 -623q3 -34 4 -73v-19q0 -26 -2 -45h4q9 25 23 62t34 75l313 623h332l-651 -1114q-51 -89 -105.5 -161.5t-118.5 -123.5t-141.5 -78.5t-175.5 -27.5q-34 0 -81.5 6.5t-88.5 21.5z " />
<glyph unicode="z" horiz-adv-x="995" d="M-84 0l27 133l645 658h-453l49 233h877l-35 -160l-606 -631h475l-49 -233h-930z" />
<glyph unicode="{" horiz-adv-x="758" d="M82 446l41 187q78 0 123.5 39.5t62.5 126.5l53 252q19 87 47.5 149t65 105t80.5 68t93 39t102.5 18t109.5 4l-39 -189q-43 0 -75 -9.5t-56 -31t-40 -56t-27 -85.5l-54 -248q-24 -112 -76.5 -189t-134.5 -102v-4q41 -23 69 -70.5t28 -121.5q0 -53 -13 -115l-47 -215 q-5 -19 -6.5 -36.5t-1.5 -31.5q0 -114 129 -114l-39 -187q-99 0 -165.5 21.5t-106.5 59t-57 87.5t-17 107q0 26 4 54.5t10 59.5l52 238q5 19 6.5 35.5t1.5 32.5q0 62 -33 92t-90 30z" />
<glyph unicode="|" horiz-adv-x="668" d="M229 -481v2048h252v-2048h-252z" />
<glyph unicode="}" horiz-adv-x="758" d="M-106 -369l40 189q42 0 74.5 10t56.5 31.5t40.5 56.5t27.5 86l51 248q25 111 77.5 188.5t133.5 102.5v4q-40 23 -68 70t-28 122q0 25 3 53t11 62l45 213q5 19 7 36.5t2 31.5q0 114 -129 114l38 187q99 0 166 -21t107 -57.5t57 -86t17 -106.5q0 -26 -3.5 -57t-11.5 -61 l-51 -236q-5 -19 -6.5 -35.5t-1.5 -32.5q0 -63 33 -94t90 -31l-39 -184q-81 0 -125.5 -40.5t-63.5 -125.5l-53 -252q-18 -87 -47 -150t-65.5 -105.5t-80 -68t-93 -39.5t-102.5 -18t-109 -4z" />
<glyph unicode="~" horiz-adv-x="1450" d="M207 399q3 75 23 141t58.5 116t97 79t138.5 29q38 0 70 -6t60.5 -16.5t55 -24.5t52.5 -29q30 -18 54 -32.5t45 -24.5t40.5 -15.5t40.5 -5.5q28 0 50 12.5t37.5 34t24 51.5t9.5 64h205q-2 -81 -24 -148t-62 -115t-97 -74.5t-129 -26.5q-39 0 -71.5 6.5t-63 18t-60.5 28 t-65 35.5q-37 21 -76 42t-79 21q-33 0 -56.5 -13t-39 -35.5t-23 -51t-8.5 -60.5h-207z" />
<glyph unicode="&#xa1;" horiz-adv-x="709" d="M-6 -403l248 989h256l-174 -989h-330zM238 881q0 38 15 70t40.5 54.5t61 35t75.5 12.5q38 0 70.5 -11.5t56 -32.5t36.5 -50t13 -64q0 -37 -14.5 -68.5t-40 -54t-60 -35t-75.5 -12.5q-38 0 -70.5 11.5t-56.5 32.5t-37.5 49.5t-13.5 62.5z" />
<glyph unicode="&#xa2;" d="M174 571q0 174 68.5 307.5t185.5 221.5q74 54 168 85t195 36l43 200h161l-45 -207q57 -8 101 -20.5t67 -28.5l-53 -254q-28 23 -71.5 39.5t-94.5 24.5l-123 -576q54 8 104 25.5t97 46.5l-53 -246q-38 -23 -88 -40t-109 -25l-43 -197h-162l41 189q-95 7 -168 40.5 t-122 88.5t-74 129t-25 161zM481 612q0 -42 10.5 -75t28.5 -58t43 -42t55 -27l119 559q-94 -23 -157 -86q-47 -48 -73 -117t-26 -154z" />
<glyph unicode="&#xa3;" d="M12 0l49 229q110 26 168.5 91t81.5 172l27 120h-174l45 217h174l39 183q21 100 67 182t114.5 140.5t158.5 91t199 32.5q72 0 133 -15t96 -34l-55 -266q-16 13 -38 25t-48 21t-54 14t-57 5q-91 0 -149 -57t-82 -178l-29 -144h262l-47 -217h-262l-23 -102 q-18 -88 -69.5 -155.5t-128.5 -110.5h626l-51 -244h-973z" />
<glyph unicode="&#xa4;" horiz-adv-x="1139" d="M51 358l142 138q-66 109 -66 229q0 122 66 229l-142 140l142 145l143 -141q106 65 233 65t234 -65l143 141l141 -145l-141 -140q68 -110 68 -229q0 -117 -68 -229l141 -138l-141 -145l-143 141q-107 -65 -234 -65t-233 65l-143 -141zM330 727q0 -99 70 -168.5t169 -69.5 q100 0 171 70t71 168q0 99 -73.5 168.5t-168.5 69.5q-99 0 -169 -69.5t-70 -168.5z" />
<glyph unicode="&#xa5;" d="M72 262l39 189h313l35 153h-316l41 189h256l-207 641h314l106 -490q8 -29 13 -48t8 -38h4q11 20 24.5 41t30.5 49l307 486h310l-490 -641h250l-39 -189h-305l-33 -153h305l-39 -189h-305l-57 -262h-307l55 262h-313z" />
<glyph unicode="&#xa6;" horiz-adv-x="668" d="M229 414h252v-895h-252v895zM229 684v883h252v-883h-252z" />
<glyph unicode="&#xa7;" horiz-adv-x="995" d="M31 6l49 221q25 -17 57.5 -33t69.5 -28t76 -19.5t77 -7.5q43 0 74 9.5t51 24.5t29.5 34.5t9.5 40.5q0 31 -16.5 55.5t-42 45.5t-57.5 38.5t-64 34.5q-37 21 -71 48t-59.5 61t-40.5 74.5t-15 88.5q0 63 20 110t50.5 81t67 57.5t69.5 38.5q-28 37 -49 80t-21 100 q0 81 32.5 143t89.5 103.5t133.5 62.5t164.5 21q32 0 68.5 -3.5t73.5 -10t72 -17t64 -24.5l-43 -217q-23 14 -53.5 27t-64.5 23t-68 15.5t-64 5.5q-33 0 -61.5 -6t-49 -18t-32.5 -31.5t-12 -46.5q0 -31 13.5 -54t37 -42t56 -36.5t69.5 -37.5q106 -57 157.5 -122.5 t51.5 -156.5q0 -61 -22.5 -111t-55.5 -87.5t-70.5 -63.5t-68.5 -41q26 -35 42.5 -76.5t16.5 -91.5q0 -64 -25.5 -123.5t-78 -105.5t-133 -74t-189.5 -28q-40 0 -84.5 5t-87.5 14t-80.5 22t-62.5 28zM393 745q0 -24 4.5 -42t17.5 -35t36.5 -34.5t60.5 -39.5q17 -11 36.5 -21 t39.5 -24q20 10 38.5 24.5t32.5 33.5t22.5 41t8.5 46q0 16 -4 32t-17 33.5t-37.5 37t-66.5 41.5q-17 9 -32.5 18.5t-36.5 22.5q-42 -19 -72.5 -54t-30.5 -80z" />
<glyph unicode="&#xa8;" horiz-adv-x="899" d="M223 1325q0 30 12 55t33 42.5t49.5 27.5t61.5 10q34 0 62 -10t48.5 -28t31.5 -43t11 -54t-11 -54.5t-31 -44t-48 -29.5t-63 -11q-34 0 -63 11t-49.5 30t-32 44.5t-11.5 53.5zM682 1325q0 30 11.5 55t32.5 42.5t49 27.5t61 10q34 0 62 -10t48.5 -28t31.5 -43t11 -54 t-10.5 -54.5t-30.5 -44t-48.5 -29.5t-63.5 -11t-63.5 11t-48.5 30t-31 44.5t-11 53.5z" />
<glyph unicode="&#xa9;" horiz-adv-x="1792" d="M168 713q0 104 26 200t75 178.5t117.5 150t154.5 116t186 74.5t211 26q159 0 297.5 -53t241.5 -150t162 -233t59 -303q0 -106 -27 -202.5t-76 -179t-119 -149.5t-155 -114.5t-184 -73t-207 -25.5q-166 0 -306 54.5t-241 152.5t-158 233.5t-57 297.5zM301 715 q0 -139 49.5 -254.5t135 -199t201 -129.5t247.5 -46q129 0 243.5 47t201 130.5t136.5 199t50 252.5t-48 252t-133 198.5t-200.5 130.5t-249.5 47q-141 0 -258 -49t-200 -134t-129 -199.5t-46 -245.5zM483 696q0 119 39.5 213.5t109 160.5t164 101t203.5 35q73 0 134 -16.5 t106 -38.5v-236q-42 35 -107 55.5t-137 20.5q-50 0 -98.5 -17t-86.5 -52t-61.5 -88t-23.5 -125q0 -64 22 -115t60 -86t88 -53.5t106 -18.5q32 0 65 5.5t64.5 15.5t60 24t50.5 31v-217q-53 -28 -122 -48t-152 -20q-105 0 -194 36t-153.5 99t-100.5 148.5t-36 185.5z" />
<glyph unicode="&#xaa;" horiz-adv-x="961" d="M180 975q0 32 7.5 80t27.5 101.5t55 106.5t90 95.5t133 69t183 26.5q40 0 84.5 -3t89 -8.5t85.5 -12t73 -13.5l-99 -465q-4 -21 -9 -52.5t-9.5 -64.5t-7 -65t-2.5 -55h-238q0 11 1 27t2.5 33.5t3.5 34t3 28.5h-4q-45 -62 -107 -102t-143 -40q-48 0 -88.5 16.5t-69.5 51 t-45 87t-16 124.5zM420 993q0 -52 21 -87.5t69 -35.5q40 0 72.5 25t57 62.5t41.5 82t26 84.5l34 160q-17 5 -38.5 7.5t-38.5 2.5q-46 0 -82 -15.5t-63.5 -40.5t-46 -57.5t-30.5 -65.5t-17 -65t-5 -57z" />
<glyph unicode="&#xab;" horiz-adv-x="1200" d="M55 537l375 340h283l-387 -357l247 -323h-260zM551 537l373 340h284l-387 -357l248 -323h-262z" />
<glyph unicode="&#xac;" horiz-adv-x="1450" d="M244 655v203h975v-592h-203v389h-772z" />
<glyph unicode="&#xad;" horiz-adv-x="827" d="M119 436l47 221h547l-47 -221h-547z" />
<glyph unicode="&#xae;" horiz-adv-x="1792" d="M168 713q0 104 26 200t75 178.5t117.5 150t154.5 116t186 74.5t211 26q159 0 297.5 -53.5t241.5 -150.5t162 -233.5t59 -303.5q0 -106 -27 -202t-76 -178.5t-119 -149.5t-155 -114t-184 -72.5t-207 -25.5q-166 0 -306 54.5t-241 152.5t-158 233.5t-57 297.5zM301 715 q0 -139 49.5 -254.5t135 -199t201 -129.5t247.5 -46q129 0 243.5 47t201 130.5t136.5 198.5t50 251q0 137 -48 252.5t-133 199.5t-200.5 131t-249.5 47q-141 0 -258 -49t-200 -134t-129 -199.5t-46 -245.5zM600 264v922h320q110 0 181.5 -23t113.5 -60t58.5 -84t16.5 -95 t-16 -87t-44.5 -70t-68.5 -53t-88 -34v-4q41 -9 77 -42t64 -104l111 -266h-254l-76 232q-8 25 -19.5 47.5t-25.5 39t-30.5 26t-34.5 9.5h-74v-354h-211zM811 780h111q36 0 62 10t42.5 26.5t24.5 38t8 44.5h2q0 26 -7.5 47t-26 35t-49.5 21.5t-77 7.5h-90v-230z" />
<glyph unicode="&#xaf;" horiz-adv-x="899" d="M283 1186l37 172h586l-37 -172h-586z" />
<glyph unicode="&#xb0;" horiz-adv-x="778" d="M242 1178q0 59 22.5 110t61 89t90 59.5t110.5 21.5t110.5 -21.5t90.5 -59.5t61.5 -89t22.5 -110t-22.5 -110.5t-61.5 -90t-90.5 -60.5t-110.5 -22t-110.5 22t-90 60.5t-61 90t-22.5 110.5zM397 1178q0 -26 10 -50t27.5 -42t41 -28.5t50.5 -10.5q26 0 49.5 10.5t41 28.5 t28 42t10.5 50q0 27 -10.5 50.5t-28 41t-41 27.5t-49.5 10q-27 0 -50.5 -10t-41 -27.5t-27.5 -41t-10 -50.5z" />
<glyph unicode="&#xb1;" horiz-adv-x="1450" d="M252 0v203h971v-203h-971zM254 694v203h383v391h203v-391h387v-203h-387v-387h-203v387h-383z" />
<glyph unicode="&#xb2;" horiz-adv-x="846" d="M174 884l33 157l301 236q74 57 115.5 107t41.5 104q0 35 -25.5 55.5t-68.5 20.5q-28 0 -56.5 -6.5t-57 -17.5t-55 -25t-50.5 -29l47 207q40 23 103 42t139 19q65 0 114 -17.5t81.5 -48.5t48.5 -73t16 -90q0 -56 -21.5 -103.5t-60 -91t-90.5 -85t-113 -85.5l-131 -94 l-2 -4h336l-39 -178h-606z" />
<glyph unicode="&#xb3;" horiz-adv-x="846" d="M202 910l39 176q16 -10 42 -19.5t56.5 -17.5t63.5 -13t64 -5q44 0 75 9t50.5 24.5t28.5 35t9 40.5q0 44 -36.5 68t-126.5 24h-105l37 168h107q42 0 75 9t55.5 24t34 34.5t11.5 40.5q0 35 -28.5 56.5t-90.5 21.5q-51 0 -102.5 -13.5t-92.5 -33.5l39 176q42 16 103.5 27.5 t124.5 11.5q60 0 109.5 -14.5t84 -41.5t53.5 -66t19 -87q0 -42 -15 -77.5t-42.5 -64t-65.5 -48.5t-84 -31v-4q74 -17 113 -66t39 -127q0 -44 -19 -91t-63 -85.5t-116 -63t-179 -24.5q-34 0 -73 3.5t-76 10t-68 15t-50 18.5z" />
<glyph unicode="&#xb4;" horiz-adv-x="899" d="M375 1186l315 325h289l-369 -325h-235z" />
<glyph unicode="&#xb5;" horiz-adv-x="1262" d="M-74 -390l293 1414h318l-119 -555q-3 -14 -6.5 -32t-6.5 -35.5t-5 -32t-2 -22.5q0 -27 3.5 -49.5t13 -38t27.5 -24t47 -8.5q48 0 94 27t85 72t68.5 105t43.5 126l99 467h319l-126 -587q-7 -32 -11.5 -69.5t-4.5 -57.5q0 -35 21.5 -53.5t54.5 -18.5q15 0 31.5 2.5 t33.5 7.5l-52 -240q-20 -5 -38.5 -9.5t-41.5 -7.5t-54.5 -5t-77.5 -2q-58 0 -100.5 13.5t-70 38.5t-41 59t-13.5 75q0 3 0.5 7t0.5 8v8h-4q-31 -46 -66 -85.5t-76 -69t-88.5 -46.5t-104.5 -17q-15 0 -34 1.5t-22 2.5q-12 -56 -26 -120t-26 -120q-14 -65 -28 -129h-308z" />
<glyph unicode="&#xb6;" horiz-adv-x="1042" d="M139 1139q0 67 23.5 121.5t64 93t94.5 59.5t115 21h557v-162h-116v-1272h-177v1272h-116v-1272h-176v836q-57 3 -106 26.5t-85.5 63.5t-57 94.5t-20.5 118.5z" />
<glyph unicode="&#xb7;" horiz-adv-x="555" d="M123 643q0 38 14.5 70t40 54.5t61 35t76.5 12.5q38 0 70.5 -11.5t56 -32.5t37 -49.5t13.5 -62.5q0 -38 -15 -70t-41 -54.5t-61 -35t-76 -12.5q-37 0 -69.5 11.5t-56 32.5t-37 49.5t-13.5 62.5z" />
<glyph unicode="&#xb8;" horiz-adv-x="899" d="M80 -451l31 138q42 -9 75 -9q66 0 103 21.5t37 56.5q0 64 -111 64h-22q-11 0 -25 -2l43 182h154l-19 -82q40 -2 73.5 -11.5t57.5 -27.5t37.5 -45t13.5 -63q0 -45 -20 -86t-62 -72.5t-105.5 -50.5t-150.5 -19q-30 0 -57.5 2t-52.5 4z" />
<glyph unicode="&#xb9;" horiz-adv-x="774" d="M180 884l37 174h174l104 475l-200 -41l39 180l421 82l-149 -696h172l-37 -174h-561z" />
<glyph unicode="&#xba;" horiz-adv-x="934" d="M168 1032q0 84 31 160t88.5 134.5t139 93t181.5 34.5q101 0 171 -26t114 -70.5t64 -102t20 -120.5q0 -88 -31 -168t-88.5 -140t-140.5 -95.5t-187 -35.5q-86 0 -153 24.5t-113.5 69t-71 106.5t-24.5 136zM406 1024q0 -71 38 -112.5t101 -41.5q48 0 84 23t60 59.5t36 81.5 t12 88q0 69 -34.5 113.5t-108.5 44.5q-41 0 -75.5 -19.5t-59.5 -53.5t-39 -81t-14 -102z" />
<glyph unicode="&#xbb;" horiz-adv-x="1200" d="M-8 201l387 356l-248 324h262l256 -340l-373 -340h-284zM487 201l387 356l-247 324h260l258 -340l-375 -340h-283z" />
<glyph unicode="&#xbc;" horiz-adv-x="1946" d="M125 584l37 174h174l104 475l-200 -41l39 180l421 82l-149 -696h172l-37 -174h-561zM260 0l1196 1434h244l-1196 -1434h-244zM1051 177l30 152l453 522h276l-110 -518h110l-32 -156h-111l-39 -176h-213l37 176h-401zM1272 333h215l57 278q5 19 12 40.5t13 41.5h-4 q-11 -17 -27 -37t-29 -37z" />
<glyph unicode="&#xbd;" horiz-adv-x="1974" d="M139 584l37 174h174l104 475l-200 -41l39 180l421 82l-149 -696h172l-37 -174h-561zM270 0l1196 1434h244l-1196 -1434h-244zM1133 1l33 157l301 236q74 57 115.5 107t41.5 104q0 35 -25.5 55.5t-68.5 20.5q-28 0 -56.5 -6.5t-57 -17.5t-55 -25t-50.5 -29l47 207 q40 23 103 42t139 19q65 0 114 -17.5t81.5 -48.5t48.5 -73t16 -90q0 -56 -21.5 -103.5t-60 -91t-90.5 -85t-113 -85.5l-131 -94l-2 -4h336l-39 -178h-606z" />
<glyph unicode="&#xbe;" horiz-adv-x="2005" d="M109 610l39 176q16 -10 42 -19.5t56.5 -17.5t63.5 -13t64 -5q44 0 75 9t50.5 24.5t28.5 35t9 40.5q0 44 -36.5 68t-126.5 24h-105l37 168h107q42 0 75 9t55.5 24t34 34.5t11.5 40.5q0 35 -28.5 56.5t-90.5 21.5q-51 0 -102.5 -13.5t-92.5 -33.5l39 176q42 16 103.5 27.5 t124.5 11.5q60 0 109.5 -14.5t84 -41.5t53.5 -66t19 -87q0 -42 -15 -77.5t-42.5 -64t-65.5 -48.5t-84 -31v-4q74 -17 113 -66t39 -127q0 -44 -19 -91t-63 -85.5t-116 -63t-179 -24.5q-34 0 -73 3.5t-76 10t-68 15t-50 18.5zM321 0l1196 1434h244l-1196 -1434h-244zM1116 177 l30 152l453 522h276l-110 -518h110l-32 -156h-111l-39 -176h-213l37 176h-401zM1337 333h215l57 278q5 19 12 40.5t13 41.5h-4q-11 -17 -27 -37t-29 -37z" />
<glyph unicode="&#xbf;" horiz-adv-x="920" d="M-78 -102q0 58 16 112.5t51 105.5t89.5 100t132.5 97q51 32 85 62t56.5 63.5t36.5 71.5t23 86h260q-13 -65 -29 -121t-41.5 -104.5t-62.5 -90t-93 -79.5q-54 -37 -93.5 -68.5t-65 -60.5t-37.5 -57.5t-12 -59.5q0 -68 46.5 -103.5t121.5 -35.5q80 0 160 26t145 66 l-49 -279q-31 -14 -70.5 -26.5t-83 -22t-90 -15t-90.5 -5.5q-108 0 -184.5 28t-126 74.5t-72.5 108t-23 127.5zM401 881q0 38 15 70t41 54.5t61 35t76 12.5q38 0 70.5 -11.5t56 -32.5t36.5 -50t13 -64q0 -37 -14.5 -68.5t-40 -54t-60 -35t-75.5 -12.5q-39 0 -71.5 11.5 t-56.5 32.5t-37.5 49.5t-13.5 62.5z" />
<glyph unicode="&#xc0;" horiz-adv-x="1440" d="M-102 0l827 1434h385l205 -1434h-330l-41 319h-514l-168 -319h-364zM551 567h369l-52 484q-1 16 -1.5 35.5t0 37.5t1.5 32.5t2 21.5h-6q-2 -9 -7 -23t-11.5 -30.5t-15 -34.5t-17.5 -35zM663 1891h264l209 -325h-213z" />
<glyph unicode="&#xc1;" horiz-adv-x="1440" d="M-102 0l827 1434h385l205 -1434h-330l-41 319h-514l-168 -319h-364zM551 567h369l-52 484q-1 16 -1.5 35.5t0 37.5t1.5 32.5t2 21.5h-6q-2 -9 -7 -23t-11.5 -30.5t-15 -34.5t-17.5 -35zM709 1566l315 325h289l-369 -325h-235z" />
<glyph unicode="&#xc2;" horiz-adv-x="1440" d="M-102 0l827 1434h385l205 -1434h-330l-41 319h-514l-168 -319h-364zM551 567h369l-52 484q-1 16 -1.5 35.5t0 37.5t1.5 32.5t2 21.5h-6q-2 -9 -7 -23t-11.5 -30.5t-15 -34.5t-17.5 -35zM560 1564l303 327h250l168 -327h-197l-116 190l-197 -190h-211z" />
<glyph unicode="&#xc3;" horiz-adv-x="1440" d="M-102 0l827 1434h385l205 -1434h-330l-41 319h-514l-168 -319h-364zM551 567h369l-52 484q-1 16 -1.5 35.5t0 37.5t1.5 32.5t2 21.5h-6q-2 -9 -7 -23t-11.5 -30.5t-15 -34.5t-17.5 -35zM545 1567q7 61 28.5 112.5t55 89t79 59t101.5 21.5q50 0 83 -13t60 -28t53 -28 t60 -13q41 0 68.5 26.5t34.5 74.5h155q-10 -72 -34 -125t-58.5 -88t-77 -52.5t-90.5 -17.5q-51 0 -86.5 13t-63 28t-52 28t-54.5 13q-25 0 -44 -8.5t-32 -22.5t-21 -32t-11 -37h-154z" />
<glyph unicode="&#xc4;" horiz-adv-x="1440" d="M-102 0l827 1434h385l205 -1434h-330l-41 319h-514l-168 -319h-364zM551 567h369l-52 484q-1 16 -1.5 35.5t0 37.5t1.5 32.5t2 21.5h-6q-2 -9 -7 -23t-11.5 -30.5t-15 -34.5t-17.5 -35zM557 1703q0 30 12 55t33 42.5t49.5 27.5t61.5 10q34 0 62 -10t48.5 -28t31.5 -43 t11 -54t-11 -54.5t-31 -44t-48 -29.5t-63 -11q-34 0 -63 11t-49.5 30t-32 44.5t-11.5 53.5zM1016 1703q0 30 11.5 55t32.5 42.5t49 27.5t61 10q34 0 62 -10t48.5 -28t31.5 -43t11 -54t-10.5 -54.5t-30.5 -44t-48.5 -29.5t-63.5 -11t-63.5 11t-48.5 30t-31 44.5t-11 53.5z " />
<glyph unicode="&#xc5;" horiz-adv-x="1440" d="M-102 0l815 1411q-23 25 -35 59t-12 72q0 60 22.5 104t58.5 72.5t81.5 42t91.5 13.5q57 0 103.5 -17t79.5 -47t50.5 -72t17.5 -92q0 -43 -15.5 -79.5t-41.5 -61.5l201 -1405h-330l-41 319h-512l-170 -319h-364zM550 567h370l-54 482q-2 16 -2.5 34.5t0.5 35t2 30t2 20.5 h-8q-3 -15 -15.5 -48.5t-31.5 -67.5zM813 1546q0 -42 27 -71t75 -29q23 0 42.5 7.5t34.5 21t23.5 32t8.5 39.5q0 40 -29 68t-80 28q-24 0 -43 -8.5t-32 -22t-20 -30.5t-7 -35z" />
<glyph unicode="&#xc6;" horiz-adv-x="1933" d="M-143 0l1083 1434h1065l-55 -263h-504l-68 -323h467l-55 -264h-467l-70 -322h535l-55 -262h-859l68 319h-477l-229 -319h-379zM653 586h344l125 588h-51z" />
<glyph unicode="&#xc7;" horiz-adv-x="1300" d="M104 598q0 113 24 220.5t72.5 203t122 175.5t173 138t226 90.5t279.5 32.5q58 0 112 -6t103 -15.5t90.5 -21t73.5 -22.5l-67 -306q-30 16 -64.5 32t-75.5 28.5t-88.5 20.5t-103.5 8q-130 0 -229.5 -44.5t-167.5 -119.5t-103 -174t-35 -209q0 -91 27 -161t77 -117.5 t120 -72t157 -24.5q55 0 103 7.5t91 20t81.5 28.5t73.5 34l-68 -305q-74 -31 -163.5 -47.5t-201.5 -16.5q-150 0 -269 44.5t-201 126.5t-125.5 196.5t-43.5 255.5zM481 -451l31 138q42 -9 75 -9q66 0 103 21.5t37 56.5q0 64 -111 64h-22q-11 0 -25 -2l43 182h154l-19 -82 q40 -2 73.5 -11.5t57.5 -27.5t37.5 -45t13.5 -63q0 -45 -20 -86t-62 -72.5t-105.5 -50.5t-150.5 -19q-30 0 -57.5 2t-52.5 4z" />
<glyph unicode="&#xc8;" horiz-adv-x="1085" d="M49 0l305 1434h826l-56 -263h-501l-68 -323h467l-57 -264h-465l-70 -322h535l-56 -262h-860zM536 1890h264l209 -325h-213z" />
<glyph unicode="&#xc9;" horiz-adv-x="1085" d="M49 0l305 1434h826l-56 -263h-501l-68 -323h467l-57 -264h-465l-70 -322h535l-56 -262h-860zM607 1565l315 325h289l-369 -325h-235z" />
<glyph unicode="&#xca;" horiz-adv-x="1085" d="M49 0l305 1434h826l-56 -263h-501l-68 -323h467l-57 -264h-465l-70 -322h535l-56 -262h-860zM423 1565l303 327h250l168 -327h-197l-116 190l-197 -190h-211z" />
<glyph unicode="&#xcb;" horiz-adv-x="1085" d="M49 0l305 1434h826l-56 -263h-501l-68 -323h467l-57 -264h-465l-70 -322h535l-56 -262h-860zM410 1706q0 30 12 55t33 42.5t49.5 27.5t61.5 10q34 0 62 -10t48.5 -28t31.5 -43t11 -54t-11 -54.5t-31 -44t-48 -29.5t-63 -11q-34 0 -63 11t-49.5 30t-32 44.5t-11.5 53.5z M869 1706q0 30 11.5 55t32.5 42.5t49 27.5t61 10q34 0 62 -10t48.5 -28t31.5 -43t11 -54t-10.5 -54.5t-30.5 -44t-48.5 -29.5t-63.5 -11t-63.5 11t-48.5 30t-31 44.5t-11 53.5z" />
<glyph unicode="&#xcc;" horiz-adv-x="649" d="M49 0l303 1434h326l-303 -1434h-326zM294 1891h264l209 -325h-213z" />
<glyph unicode="&#xcd;" horiz-adv-x="649" d="M49 0l303 1434h326l-303 -1434h-326zM308 1565l315 325h289l-369 -325h-235z" />
<glyph unicode="&#xce;" horiz-adv-x="649" d="M49 0l303 1434h326l-303 -1434h-326zM165 1565l303 327h250l168 -327h-197l-116 190l-197 -190h-211z" />
<glyph unicode="&#xcf;" horiz-adv-x="649" d="M49 0l303 1434h326l-303 -1434h-326zM156 1706q0 30 12 55t33 42.5t49.5 27.5t61.5 10q34 0 62 -10t48.5 -28t31.5 -43t11 -54t-11 -54.5t-31 -44t-48 -29.5t-63 -11q-34 0 -63 11t-49.5 30t-32 44.5t-11.5 53.5zM615 1706q0 30 11.5 55t32.5 42.5t49 27.5t61 10 q34 0 62 -10t48.5 -28t31.5 -43t11 -54t-10.5 -54.5t-30.5 -44t-48.5 -29.5t-63.5 -11t-63.5 11t-48.5 30t-31 44.5t-11 53.5z" />
<glyph unicode="&#xd0;" horiz-adv-x="1542" d="M8 592l53 262h170l123 580h500q159 0 279.5 -44t202 -122t122.5 -185.5t41 -234.5q0 -172 -52 -326t-159.5 -270t-272 -184t-388.5 -68h-578l127 592h-168zM430 262h186q128 0 228.5 38.5t170 111.5t106 177t36.5 234q0 79 -22.5 143.5t-69 110t-117.5 70t-168 24.5h-157 l-68 -317h274l-55 -262h-274z" />
<glyph unicode="&#xd1;" horiz-adv-x="1636" d="M49 0l303 1434h320l430 -877q5 -11 12.5 -26.5t15 -32t14 -32.5t9.5 -28h4q1 15 3 33.5t5 37.5t6.5 37t6.5 32l182 856h305l-303 -1434h-295l-449 911q-6 12 -13 28t-14 32.5t-13 31.5t-9 27h-6q-5 -37 -11 -83t-17 -91l-183 -856h-303zM649 1566q7 61 28.5 112.5t55 89 t79 59t101.5 21.5q50 0 83 -13t60 -28t53 -28t60 -13q41 0 68.5 26.5t34.5 74.5h155q-10 -72 -34 -125t-58.5 -88t-77 -52.5t-90.5 -17.5q-51 0 -86.5 13t-63 28t-52 28t-54.5 13q-25 0 -44 -8.5t-32 -22.5t-21 -32t-11 -37h-154z" />
<glyph unicode="&#xd2;" horiz-adv-x="1554" d="M111 592q0 93 16 183.5t48.5 174t81 159t112.5 138.5q50 48 108 86.5t125 66.5t144 43t165 15q133 0 243.5 -42t189.5 -121.5t123 -194t44 -258.5q0 -86 -15 -173t-44.5 -168.5t-74 -156.5t-103.5 -137q-50 -53 -109 -96t-128.5 -73t-150.5 -46.5t-175 -16.5 q-142 0 -253.5 47t-188.5 129.5t-117.5 195.5t-40.5 245zM453 596q0 -81 20.5 -145t58.5 -107.5t91.5 -66.5t119.5 -23q82 0 156.5 36t130.5 107q35 42 61 94.5t43 109.5t26 116t9 114q0 81 -20.5 145t-58.5 108.5t-92.5 68t-123.5 23.5q-80 0 -152 -37t-128 -103 q-34 -40 -60 -92t-44 -110t-27.5 -118.5t-9.5 -119.5zM647 1890h264l209 -325h-213z" />
<glyph unicode="&#xd3;" horiz-adv-x="1554" d="M111 592q0 93 16 183.5t48.5 174t81 159t112.5 138.5q50 48 108 86.5t125 66.5t144 43t165 15q133 0 243.5 -42t189.5 -121.5t123 -194t44 -258.5q0 -86 -15 -173t-44.5 -168.5t-74 -156.5t-103.5 -137q-50 -53 -109 -96t-128.5 -73t-150.5 -46.5t-175 -16.5 q-142 0 -253.5 47t-188.5 129.5t-117.5 195.5t-40.5 245zM453 596q0 -81 20.5 -145t58.5 -107.5t91.5 -66.5t119.5 -23q82 0 156.5 36t130.5 107q35 42 61 94.5t43 109.5t26 116t9 114q0 81 -20.5 145t-58.5 108.5t-92.5 68t-123.5 23.5q-80 0 -152 -37t-128 -103 q-34 -40 -60 -92t-44 -110t-27.5 -118.5t-9.5 -119.5zM690 1566l315 325h289l-369 -325h-235z" />
<glyph unicode="&#xd4;" horiz-adv-x="1554" d="M111 592q0 93 16 183.5t48.5 174t81 159t112.5 138.5q50 48 108 86.5t125 66.5t144 43t165 15q133 0 243.5 -42t189.5 -121.5t123 -194t44 -258.5q0 -86 -15 -173t-44.5 -168.5t-74 -156.5t-103.5 -137q-50 -53 -109 -96t-128.5 -73t-150.5 -46.5t-175 -16.5 q-142 0 -253.5 47t-188.5 129.5t-117.5 195.5t-40.5 245zM453 596q0 -81 20.5 -145t58.5 -107.5t91.5 -66.5t119.5 -23q82 0 156.5 36t130.5 107q35 42 61 94.5t43 109.5t26 116t9 114q0 81 -20.5 145t-58.5 108.5t-92.5 68t-123.5 23.5q-80 0 -152 -37t-128 -103 q-34 -40 -60 -92t-44 -110t-27.5 -118.5t-9.5 -119.5zM540 1567l303 327h250l168 -327h-197l-116 190l-197 -190h-211z" />
<glyph unicode="&#xd5;" horiz-adv-x="1554" d="M111 592q0 93 16 183.5t48.5 174t81 159t112.5 138.5q50 48 108 86.5t125 66.5t144 43t165 15q133 0 243.5 -42t189.5 -121.5t123 -194t44 -258.5q0 -86 -15 -173t-44.5 -168.5t-74 -156.5t-103.5 -137q-50 -53 -109 -96t-128.5 -73t-150.5 -46.5t-175 -16.5 q-142 0 -253.5 47t-188.5 129.5t-117.5 195.5t-40.5 245zM453 596q0 -81 20.5 -145t58.5 -107.5t91.5 -66.5t119.5 -23q82 0 156.5 36t130.5 107q35 42 61 94.5t43 109.5t26 116t9 114q0 81 -20.5 145t-58.5 108.5t-92.5 68t-123.5 23.5q-80 0 -152 -37t-128 -103 q-34 -40 -60 -92t-44 -110t-27.5 -118.5t-9.5 -119.5zM561 1565q7 61 28.5 112.5t55 89t79 59t101.5 21.5q50 0 83 -13t60 -28t53 -28t60 -13q41 0 68.5 26.5t34.5 74.5h155q-10 -72 -34 -125t-58.5 -88t-77 -52.5t-90.5 -17.5q-51 0 -86.5 13t-63 28t-52 28t-54.5 13 q-25 0 -44 -8.5t-32 -22.5t-21 -32t-11 -37h-154z" />
<glyph unicode="&#xd6;" horiz-adv-x="1554" d="M111 592q0 93 16 183.5t48.5 174t81 159t112.5 138.5q50 48 108 86.5t125 66.5t144 43t165 15q133 0 243.5 -42t189.5 -121.5t123 -194t44 -258.5q0 -86 -15 -173t-44.5 -168.5t-74 -156.5t-103.5 -137q-50 -53 -109 -96t-128.5 -73t-150.5 -46.5t-175 -16.5 q-142 0 -253.5 47t-188.5 129.5t-117.5 195.5t-40.5 245zM453 596q0 -81 20.5 -145t58.5 -107.5t91.5 -66.5t119.5 -23q82 0 156.5 36t130.5 107q35 42 61 94.5t43 109.5t26 116t9 114q0 81 -20.5 145t-58.5 108.5t-92.5 68t-123.5 23.5q-80 0 -152 -37t-128 -103 q-34 -40 -60 -92t-44 -110t-27.5 -118.5t-9.5 -119.5zM559 1706q0 30 12 55t33 42.5t49.5 27.5t61.5 10q34 0 62 -10t48.5 -28t31.5 -43t11 -54t-11 -54.5t-31 -44t-48 -29.5t-63 -11q-34 0 -63 11t-49.5 30t-32 44.5t-11.5 53.5zM1018 1706q0 30 11.5 55t32.5 42.5t49 27.5 t61 10q34 0 62 -10t48.5 -28t31.5 -43t11 -54t-10.5 -54.5t-30.5 -44t-48.5 -29.5t-63.5 -11t-63.5 11t-48.5 30t-31 44.5t-11 53.5z" />
<glyph unicode="&#xd7;" horiz-adv-x="1450" d="M254 248l340 338l-340 340l141 145l344 -340l342 340l140 -149l-338 -336l340 -338l-146 -144l-338 340l-340 -340z" />
<glyph unicode="&#xd8;" horiz-adv-x="1554" d="M41 43l172 178q-50 78 -76 170.5t-26 200.5q0 187 64.5 356.5t195.5 296.5q49 48 106.5 86.5t124 66.5t143.5 43t166 15q115 0 209 -32t166 -85l148 154l118 -117l-147 -155q51 -78 78.5 -173t27.5 -210q0 -86 -16 -174.5t-48 -172.5t-80.5 -162t-113.5 -143 q-97 -98 -231 -154.5t-315 -56.5q-118 0 -214 35t-165 90l-166 -176zM428 596q0 -37 4 -68.5t12 -62.5l646 668q-36 32 -90 52.5t-117 20.5q-48 0 -91 -10.5t-80.5 -29.5t-69.5 -44.5t-56 -54.5q-34 -40 -63 -93t-50 -114.5t-33 -128.5t-12 -135zM522 303q40 -40 93.5 -61 t119.5 -21q88 0 160 34.5t131 96.5q41 43 72.5 100.5t52.5 121.5t32 131t11 129q0 80 -23 143z" />
<glyph unicode="&#xd9;" horiz-adv-x="1481" d="M150 459q0 52 8 114.5t20 116.5l160 744h326l-162 -746q-11 -53 -20 -106t-9 -90q0 -58 17.5 -102.5t49 -74.5t74 -45.5t91.5 -15.5q57 0 106 17t88 56t69 103.5t50 159.5l182 844h326l-183 -850q-30 -141 -77 -254t-124.5 -192t-192.5 -121t-281 -42q-120 0 -216 33 t-163 95.5t-103 152t-36 203.5zM677 1890h264l209 -325h-213z" />
<glyph unicode="&#xda;" horiz-adv-x="1481" d="M150 459q0 52 8 114.5t20 116.5l160 744h326l-162 -746q-11 -53 -20 -106t-9 -90q0 -58 17.5 -102.5t49 -74.5t74 -45.5t91.5 -15.5q57 0 106 17t88 56t69 103.5t50 159.5l182 844h326l-183 -850q-30 -141 -77 -254t-124.5 -192t-192.5 -121t-281 -42q-120 0 -216 33 t-163 95.5t-103 152t-36 203.5zM750 1567l315 325h289l-369 -325h-235z" />
<glyph unicode="&#xdb;" horiz-adv-x="1481" d="M150 459q0 52 8 114.5t20 116.5l160 744h326l-162 -746q-11 -53 -20 -106t-9 -90q0 -58 17.5 -102.5t49 -74.5t74 -45.5t91.5 -15.5q57 0 106 17t88 56t69 103.5t50 159.5l182 844h326l-183 -850q-30 -141 -77 -254t-124.5 -192t-192.5 -121t-281 -42q-120 0 -216 33 t-163 95.5t-103 152t-36 203.5zM584 1565l303 327h250l168 -327h-197l-116 190l-197 -190h-211z" />
<glyph unicode="&#xdc;" horiz-adv-x="1481" d="M150 459q0 52 8 114.5t20 116.5l160 744h326l-162 -746q-11 -53 -20 -106t-9 -90q0 -58 17.5 -102.5t49 -74.5t74 -45.5t91.5 -15.5q57 0 106 17t88 56t69 103.5t50 159.5l182 844h326l-183 -850q-30 -141 -77 -254t-124.5 -192t-192.5 -121t-281 -42q-120 0 -216 33 t-163 95.5t-103 152t-36 203.5zM573 1705q0 30 12 55t33 42.5t49.5 27.5t61.5 10q34 0 62 -10t48.5 -28t31.5 -43t11 -54t-11 -54.5t-31 -44t-48 -29.5t-63 -11q-34 0 -63 11t-49.5 30t-32 44.5t-11.5 53.5zM1032 1705q0 30 11.5 55t32.5 42.5t49 27.5t61 10q34 0 62 -10 t48.5 -28t31.5 -43t11 -54t-10.5 -54.5t-30.5 -44t-48.5 -29.5t-63.5 -11t-63.5 11t-48.5 30t-31 44.5t-11 53.5z" />
<glyph unicode="&#xdd;" horiz-adv-x="1245" d="M193 1434h350l114 -545q8 -34 9.5 -63t3.5 -52h2q11 28 24.5 57t28.5 54l350 549h363l-662 -914l-108 -520h-326l109 514zM633 1567l315 325h289l-369 -325h-235z" />
<glyph unicode="&#xde;" horiz-adv-x="1290" d="M49 0l305 1434h326l-45 -211h168q122 0 210.5 -31t146 -85t85 -128.5t27.5 -161.5q0 -106 -37 -202.5t-115 -170t-198 -117.5t-287 -44h-199l-61 -283h-326zM487 530h150q77 0 132.5 21.5t91 57.5t52.5 84t17 100q0 38 -13 71.5t-41 58t-71 38.5t-103 14h-120z" />
<glyph unicode="&#xdf;" horiz-adv-x="1235" d="M-6 0l227 1065q23 105 65 192.5t108.5 150.5t160.5 97.5t221 34.5q120 0 204 -30.5t137.5 -80t77.5 -112t24 -127.5q0 -63 -16.5 -114t-43.5 -91.5t-62.5 -71.5t-73.5 -53.5t-76 -38t-70 -24.5v-4q74 -15 130.5 -47.5t94.5 -78.5t57 -103.5t19 -123.5q0 -87 -31 -171 t-96.5 -149t-166 -105t-239.5 -40q-33 0 -66.5 2.5t-63.5 7.5t-55.5 11.5t-43.5 13.5l55 252q29 -20 70.5 -32.5t89.5 -12.5q54 0 95.5 19t70 51t43 74.5t14.5 89.5q0 44 -15 83.5t-48 69t-86.5 47t-131.5 17.5l48 225q60 5 110.5 24.5t87 52t56.5 78t20 103.5 q0 30 -9.5 56.5t-28 47t-45.5 32t-62 11.5q-79 0 -132.5 -58t-80.5 -189l-224 -1051h-319z" />
<glyph unicode="&#xe0;" horiz-adv-x="1214" d="M61 371q0 47 10.5 115.5t38 144t76.5 150t125.5 134.5t185 97t255.5 37q57 0 114.5 -4.5t113 -12t107.5 -17.5t97 -20l-140 -657q-7 -31 -13.5 -75t-12 -91.5t-9 -93t-3.5 -78.5h-320q0 15 1.5 38.5t3.5 48t4.5 48t4.5 39.5h-4q-29 -39 -60 -75t-69 -63.5t-84.5 -44 t-107.5 -16.5q-75 0 -133.5 27t-98.5 78t-61 124.5t-21 166.5zM379 389q0 -37 7.5 -68.5t23.5 -54.5t39.5 -36t54.5 -13q57 0 101.5 33t78 84.5t56 116t36.5 127.5l53 239q-23 5 -51 7.5t-53 2.5q-69 0 -121 -23t-90.5 -60t-64.5 -84t-41.5 -95.5t-22 -94.5t-6.5 -81z M508 1511h264l209 -325h-213z" />
<glyph unicode="&#xe1;" horiz-adv-x="1214" d="M61 371q0 47 10.5 115.5t38 144t76.5 150t125.5 134.5t185 97t255.5 37q57 0 114.5 -4.5t113 -12t107.5 -17.5t97 -20l-140 -657q-7 -31 -13.5 -75t-12 -91.5t-9 -93t-3.5 -78.5h-320q0 15 1.5 38.5t3.5 48t4.5 48t4.5 39.5h-4q-29 -39 -60 -75t-69 -63.5t-84.5 -44 t-107.5 -16.5q-75 0 -133.5 27t-98.5 78t-61 124.5t-21 166.5zM379 389q0 -37 7.5 -68.5t23.5 -54.5t39.5 -36t54.5 -13q57 0 101.5 33t78 84.5t56 116t36.5 127.5l53 239q-23 5 -51 7.5t-53 2.5q-69 0 -121 -23t-90.5 -60t-64.5 -84t-41.5 -95.5t-22 -94.5t-6.5 -81z M528 1186l315 325h289l-369 -325h-235z" />
<glyph unicode="&#xe2;" horiz-adv-x="1214" d="M61 371q0 47 10.5 115.5t38 144t76.5 150t125.5 134.5t185 97t255.5 37q57 0 114.5 -4.5t113 -12t107.5 -17.5t97 -20l-140 -657q-7 -31 -13.5 -75t-12 -91.5t-9 -93t-3.5 -78.5h-320q0 15 1.5 38.5t3.5 48t4.5 48t4.5 39.5h-4q-29 -39 -60 -75t-69 -63.5t-84.5 -44 t-107.5 -16.5q-75 0 -133.5 27t-98.5 78t-61 124.5t-21 166.5zM379 389q0 -37 7.5 -68.5t23.5 -54.5t39.5 -36t54.5 -13q57 0 101.5 33t78 84.5t56 116t36.5 127.5l53 239q-23 5 -51 7.5t-53 2.5q-69 0 -121 -23t-90.5 -60t-64.5 -84t-41.5 -95.5t-22 -94.5t-6.5 -81z M371 1186l303 327h250l168 -327h-197l-116 190l-197 -190h-211z" />
<glyph unicode="&#xe3;" horiz-adv-x="1214" d="M61 371q0 47 10.5 115.5t38 144t76.5 150t125.5 134.5t185 97t255.5 37q57 0 114.5 -4.5t113 -12t107.5 -17.5t97 -20l-140 -657q-7 -31 -13.5 -75t-12 -91.5t-9 -93t-3.5 -78.5h-320q0 15 1.5 38.5t3.5 48t4.5 48t4.5 39.5h-4q-29 -39 -60 -75t-69 -63.5t-84.5 -44 t-107.5 -16.5q-75 0 -133.5 27t-98.5 78t-61 124.5t-21 166.5zM379 389q0 -37 7.5 -68.5t23.5 -54.5t39.5 -36t54.5 -13q57 0 101.5 33t78 84.5t56 116t36.5 127.5l53 239q-23 5 -51 7.5t-53 2.5q-69 0 -121 -23t-90.5 -60t-64.5 -84t-41.5 -95.5t-22 -94.5t-6.5 -81z M371 1186q7 61 28.5 112.5t55 89t79 59t101.5 21.5q50 0 83 -13t60 -28t53 -28t60 -13q41 0 68.5 26.5t34.5 74.5h155q-10 -72 -34 -125t-58.5 -88t-77 -52.5t-90.5 -17.5q-51 0 -86.5 13t-63 28t-52 28t-54.5 13q-25 0 -44 -8.5t-32 -22.5t-21 -32t-11 -37h-154z" />
<glyph unicode="&#xe4;" horiz-adv-x="1214" d="M61 371q0 47 10.5 115.5t38 144t76.5 150t125.5 134.5t185 97t255.5 37q57 0 114.5 -4.5t113 -12t107.5 -17.5t97 -20l-140 -657q-7 -31 -13.5 -75t-12 -91.5t-9 -93t-3.5 -78.5h-320q0 15 1.5 38.5t3.5 48t4.5 48t4.5 39.5h-4q-29 -39 -60 -75t-69 -63.5t-84.5 -44 t-107.5 -16.5q-75 0 -133.5 27t-98.5 78t-61 124.5t-21 166.5zM379 389q0 -37 7.5 -68.5t23.5 -54.5t39.5 -36t54.5 -13q57 0 101.5 33t78 84.5t56 116t36.5 127.5l53 239q-23 5 -51 7.5t-53 2.5q-69 0 -121 -23t-90.5 -60t-64.5 -84t-41.5 -95.5t-22 -94.5t-6.5 -81z M368 1325q0 30 12 55t33 42.5t49.5 27.5t61.5 10q34 0 62 -10t48.5 -28t31.5 -43t11 -54t-11 -54.5t-31 -44t-48 -29.5t-63 -11q-34 0 -63 11t-49.5 30t-32 44.5t-11.5 53.5zM827 1325q0 30 11.5 55t32.5 42.5t49 27.5t61 10q34 0 62 -10t48.5 -28t31.5 -43t11 -54 t-10.5 -54.5t-30.5 -44t-48.5 -29.5t-63.5 -11t-63.5 11t-48.5 30t-31 44.5t-11 53.5z" />
<glyph unicode="&#xe5;" horiz-adv-x="1214" d="M61 371q0 47 10.5 115.5t38 144t76.5 150t125.5 134.5t185 97t255.5 37q57 0 114.5 -4.5t113 -12t107.5 -17.5t97 -20l-140 -657q-7 -31 -13.5 -75t-12 -91.5t-9 -93t-3.5 -78.5h-320q0 15 1.5 38.5t3.5 48t4.5 48t4.5 39.5h-4q-29 -39 -60 -75t-69 -63.5t-84.5 -44 t-107.5 -16.5q-75 0 -133.5 27t-98.5 78t-61 124.5t-21 166.5zM379 389q0 -37 7.5 -68.5t23.5 -54.5t39.5 -36t54.5 -13q57 0 101.5 33t78 84.5t56 116t36.5 127.5l53 239q-23 5 -51 7.5t-53 2.5q-69 0 -121 -23t-90.5 -60t-64.5 -84t-41.5 -95.5t-22 -94.5t-6.5 -81z M542 1372q0 56 21 97.5t55 69t77 41t87 13.5q54 0 98.5 -16t75.5 -44.5t48 -68t17 -86.5q0 -54 -21 -95t-55 -69t-78 -42.5t-90 -14.5q-49 0 -92 15t-74.5 43t-50 68t-18.5 89zM681 1376q0 -40 25 -67t71 -27q44 0 73.5 26t29.5 68q0 38 -27.5 66t-75.5 28q-23 0 -41 -8.5 t-30 -22t-18.5 -30t-6.5 -33.5z" />
<glyph unicode="&#xe6;" horiz-adv-x="1761" d="M61 360q0 52 12.5 123.5t43.5 148t82 151.5t128.5 134t183 95.5t245.5 36.5q108 0 196.5 -21t147.5 -43q60 32 130.5 48t147.5 16q91 0 160 -22t115.5 -61t70 -91.5t23.5 -114.5q0 -79 -33.5 -145t-112.5 -114t-209.5 -75.5t-324.5 -30.5v-18q0 -31 10 -62.5t34 -57 t64 -41t101 -15.5q36 0 78.5 6.5t86.5 19t87.5 30t81.5 38.5l-49 -236q-31 -16 -71.5 -31t-87.5 -27t-99 -19t-107 -7q-145 0 -247 60.5t-144 179.5h-4q-33 -45 -74 -88.5t-91 -77t-111 -54t-134 -20.5q-74 0 -135 26.5t-104.5 76t-67 121t-23.5 161.5zM379 381 q0 -75 28 -119.5t80 -44.5q40 0 77.5 24t72 67t66.5 102t61 129q4 11 15.5 46t26.5 77t32 82.5t32 62.5q-20 8 -51.5 14t-60.5 6q-72 0 -128.5 -23t-98.5 -61t-71 -86t-47 -97.5t-26 -96.5t-8 -82zM1090 590q180 -2 267 41.5t87 124.5q0 37 -27.5 61.5t-75.5 24.5 q-43 0 -82.5 -18t-73 -51t-58 -79.5t-37.5 -103.5z" />
<glyph unicode="&#xe7;" horiz-adv-x="946" d="M61 397q0 86 19.5 167.5t56.5 153.5t91.5 133t125 105t156 68.5t184.5 24.5q46 0 87 -5.5t75 -14t60 -19t42 -19.5l-57 -248q-34 26 -88 45t-117 19q-73 0 -132 -34t-100 -88t-63 -121t-22 -132q0 -103 48 -159t144 -56q30 0 62.5 6t64.5 16.5t61.5 23.5t53.5 28 l-49 -242q-68 -35 -145 -54.5t-154 -19.5q-100 0 -175.5 31t-126.5 87t-76.5 133.5t-25.5 170.5zM209 -451l31 138q42 -9 75 -9q66 0 103 21.5t37 56.5q0 64 -111 64h-22q-11 0 -25 -2l43 182h154l-19 -82q40 -2 73.5 -11.5t57.5 -27.5t37.5 -45t13.5 -63q0 -45 -20 -86 t-62 -72.5t-105.5 -50.5t-150.5 -19q-30 0 -57.5 2t-52.5 4z" />
<glyph unicode="&#xe8;" horiz-adv-x="1065" d="M61 399q0 131 43.5 249t124 207t194 141.5t253.5 52.5q101 0 172 -24t116 -64.5t66 -92.5t21 -108q0 -79 -33.5 -145t-112 -114t-208.5 -75.5t-324 -30.5q-2 -7 -2 -11v-9q0 -31 10 -62t34.5 -56t64.5 -40.5t100 -15.5q36 0 78.5 6.5t86.5 19t87.5 30t80.5 38.5l-49 -236 q-31 -16 -71 -31t-86.5 -27t-99 -19t-107.5 -7q-116 0 -199 34t-136.5 91.5t-78.5 134.5t-25 164zM393 590h16q169 0 253 41q88 43 88 125q0 37 -27.5 61.5t-77.5 24.5q-44 0 -84.5 -19t-74 -52.5t-57.5 -80t-36 -100.5zM401 1511h264l209 -325h-213z" />
<glyph unicode="&#xe9;" horiz-adv-x="1065" d="M61 399q0 131 43.5 249t124 207t194 141.5t253.5 52.5q101 0 172 -24t116 -64.5t66 -92.5t21 -108q0 -79 -33.5 -145t-112 -114t-208.5 -75.5t-324 -30.5q-2 -7 -2 -11v-9q0 -31 10 -62t34.5 -56t64.5 -40.5t100 -15.5q36 0 78.5 6.5t86.5 19t87.5 30t80.5 38.5l-49 -236 q-31 -16 -71 -31t-86.5 -27t-99 -19t-107.5 -7q-116 0 -199 34t-136.5 91.5t-78.5 134.5t-25 164zM393 590h16q169 0 253 41q88 43 88 125q0 37 -27.5 61.5t-77.5 24.5q-44 0 -84.5 -19t-74 -52.5t-57.5 -80t-36 -100.5zM470 1186l315 325h289l-369 -325h-235z" />
<glyph unicode="&#xea;" horiz-adv-x="1065" d="M61 399q0 131 43.5 249t124 207t194 141.5t253.5 52.5q101 0 172 -24t116 -64.5t66 -92.5t21 -108q0 -79 -33.5 -145t-112 -114t-208.5 -75.5t-324 -30.5q-2 -7 -2 -11v-9q0 -31 10 -62t34.5 -56t64.5 -40.5t100 -15.5q36 0 78.5 6.5t86.5 19t87.5 30t80.5 38.5l-49 -236 q-31 -16 -71 -31t-86.5 -27t-99 -19t-107.5 -7q-116 0 -199 34t-136.5 91.5t-78.5 134.5t-25 164zM393 590h16q169 0 253 41q88 43 88 125q0 37 -27.5 61.5t-77.5 24.5q-44 0 -84.5 -19t-74 -52.5t-57.5 -80t-36 -100.5zM319 1186l303 327h250l168 -327h-197l-116 190 l-197 -190h-211z" />
<glyph unicode="&#xeb;" horiz-adv-x="1065" d="M61 399q0 131 43.5 249t124 207t194 141.5t253.5 52.5q101 0 172 -24t116 -64.5t66 -92.5t21 -108q0 -79 -33.5 -145t-112 -114t-208.5 -75.5t-324 -30.5q-2 -7 -2 -11v-9q0 -31 10 -62t34.5 -56t64.5 -40.5t100 -15.5q36 0 78.5 6.5t86.5 19t87.5 30t80.5 38.5l-49 -236 q-31 -16 -71 -31t-86.5 -27t-99 -19t-107.5 -7q-116 0 -199 34t-136.5 91.5t-78.5 134.5t-25 164zM393 590h16q169 0 253 41q88 43 88 125q0 37 -27.5 61.5t-77.5 24.5q-44 0 -84.5 -19t-74 -52.5t-57.5 -80t-36 -100.5zM297 1325q0 30 12 55t33 42.5t49.5 27.5t61.5 10 q34 0 62 -10t48.5 -28t31.5 -43t11 -54t-11 -54.5t-31 -44t-48 -29.5t-63 -11q-34 0 -63 11t-49.5 30t-32 44.5t-11.5 53.5zM756 1325q0 30 11.5 55t32.5 42.5t49 27.5t61 10q34 0 62 -10t48.5 -28t31.5 -43t11 -54t-10.5 -54.5t-30.5 -44t-48.5 -29.5t-63.5 -11t-63.5 11 t-48.5 30t-31 44.5t-11 53.5z" />
<glyph unicode="&#xec;" horiz-adv-x="650" d="M79 217q0 22 2.5 49t6.5 56.5t9.5 60t11.5 58.5q4 17 13.5 62.5t22 104.5t26.5 124.5t26.5 124.5t22 104.5t13.5 62.5h320l-122 -576q-8 -35 -17 -78.5t-9 -75.5q0 -38 24 -53t55 -15q26 0 52.5 5.5t48.5 14.5q-13 -60 -25 -118.5t-25 -118.5q-18 -5 -41.5 -10t-50 -9.5 t-55 -7t-56.5 -2.5q-67 0 -114.5 17.5t-78.5 49t-45.5 75t-14.5 95.5zM180 1511h264l209 -325h-213z" />
<glyph unicode="&#xed;" horiz-adv-x="650" d="M79 217q0 22 2.5 49t6.5 56.5t9.5 60t11.5 58.5q4 17 13.5 62.5t22 104.5t26.5 124.5t26.5 124.5t22 104.5t13.5 62.5h320l-122 -576q-8 -35 -17 -78.5t-9 -75.5q0 -38 24 -53t55 -15q26 0 52.5 5.5t48.5 14.5q-13 -60 -25 -118.5t-25 -118.5q-18 -5 -41.5 -10t-50 -9.5 t-55 -7t-56.5 -2.5q-67 0 -114.5 17.5t-78.5 49t-45.5 75t-14.5 95.5zM195 1186l315 325h289l-369 -325h-235z" />
<glyph unicode="&#xee;" horiz-adv-x="650" d="M79 217q0 22 2.5 49t6.5 56.5t9.5 60t11.5 58.5q4 17 13.5 62.5t22 104.5t26.5 124.5t26.5 124.5t22 104.5t13.5 62.5h320l-122 -576q-8 -35 -17 -78.5t-9 -75.5q0 -38 24 -53t55 -15q26 0 52.5 5.5t48.5 14.5q-13 -60 -25 -118.5t-25 -118.5q-18 -5 -41.5 -10t-50 -9.5 t-55 -7t-56.5 -2.5q-67 0 -114.5 17.5t-78.5 49t-45.5 75t-14.5 95.5zM51 1186l303 327h250l168 -327h-197l-116 190l-197 -190h-211z" />
<glyph unicode="&#xef;" horiz-adv-x="650" d="M79 217q0 22 2.5 49t6.5 56.5t9.5 60t11.5 58.5q4 17 13.5 62.5t22 104.5t26.5 124.5t26.5 124.5t22 104.5t13.5 62.5h320l-122 -576q-8 -35 -17 -78.5t-9 -75.5q0 -38 24 -53t55 -15q26 0 52.5 5.5t48.5 14.5q-13 -60 -25 -118.5t-25 -118.5q-18 -5 -41.5 -10t-50 -9.5 t-55 -7t-56.5 -2.5q-67 0 -114.5 17.5t-78.5 49t-45.5 75t-14.5 95.5zM36 1325q0 30 12 55t33 42.5t49.5 27.5t61.5 10q34 0 62 -10t48.5 -28t31.5 -43t11 -54t-11 -54.5t-31 -44t-48 -29.5t-63 -11q-34 0 -63 11t-49.5 30t-32 44.5t-11.5 53.5zM495 1325q0 30 11.5 55 t32.5 42.5t49 27.5t61 10q34 0 62 -10t48.5 -28t31.5 -43t11 -54t-10.5 -54.5t-30.5 -44t-48.5 -29.5t-63.5 -11t-63.5 11t-48.5 30t-31 44.5t-11 53.5z" />
<glyph unicode="&#xf0;" horiz-adv-x="1165" d="M61 414q0 127 39.5 242t109.5 202.5t167 139t211 51.5q65 0 109 -22t75 -56h4q-10 33 -27.5 68.5t-38.5 69t-43.5 62.5t-41.5 48l-287 -113l-68 125l248 96q-21 22 -48.5 47t-56.5 50t-59 49t-57 43h342q11 -8 25.5 -19t30.5 -24t31.5 -26.5t27.5 -25.5l272 111l64 -127 l-230 -94q49 -51 93.5 -116.5t78 -143.5t53 -167.5t19.5 -187.5q0 -94 -17 -184t-51.5 -170.5t-85 -147.5t-118 -116t-151 -76t-183.5 -27q-110 0 -192 33t-136.5 91.5t-81.5 139t-27 175.5zM379 406q0 -91 38.5 -140t104.5 -49q68 0 117.5 40t82 100.5t48.5 132t16 133.5 q0 35 -7.5 68.5t-24.5 59t-46 41t-71 15.5q-61 0 -109 -37t-81 -94.5t-50.5 -129t-17.5 -140.5z" />
<glyph unicode="&#xf1;" horiz-adv-x="1225" d="M16 0l152 702q9 46 18 92.5t16 89t12.5 79t8.5 61.5h312q-3 -28 -6.5 -58.5t-7 -58.5t-6.5 -49.5t-5 -30.5h4q35 46 79 86.5t93.5 70.5t102.5 47.5t106 17.5q127 0 191.5 -70.5t64.5 -198.5q0 -15 -3 -40t-7.5 -52t-9.5 -52.5t-9 -43.5l-125 -592h-317l123 584 q6 32 12 66t6 52q0 48 -24.5 76.5t-73.5 28.5q-41 0 -85.5 -25.5t-83.5 -67.5t-68.5 -96.5t-41.5 -111.5l-106 -506h-322zM354 1186q7 61 28.5 112.5t55 89t79 59t101.5 21.5q50 0 83 -13t60 -28t53 -28t60 -13q41 0 68.5 26.5t34.5 74.5h155q-10 -72 -34 -125t-58.5 -88 t-77 -52.5t-90.5 -17.5q-51 0 -86.5 13t-63 28t-52 28t-54.5 13q-25 0 -44 -8.5t-32 -22.5t-21 -32t-11 -37h-154z" />
<glyph unicode="&#xf2;" horiz-adv-x="1178" d="M61 408q0 74 15 150.5t46.5 147.5t80.5 133.5t117 109t155.5 73.5t196.5 27q107 0 189.5 -30.5t139 -87t86 -136t29.5 -177.5q0 -71 -14 -146t-44 -146.5t-77.5 -135.5t-115 -111.5t-156 -75.5t-201.5 -28q-114 0 -198.5 33t-139.5 91t-82 137.5t-27 171.5zM379 408 q0 -91 42.5 -141t110.5 -50q65 0 114.5 35t83 91.5t50.5 127.5t17 143q0 42 -10 77.5t-29.5 61t-47.5 40t-65 14.5q-63 0 -112.5 -36t-83.5 -93t-52 -128t-18 -142zM424 1511h264l209 -325h-213z" />
<glyph unicode="&#xf3;" horiz-adv-x="1178" d="M61 408q0 74 15 150.5t46.5 147.5t80.5 133.5t117 109t155.5 73.5t196.5 27q107 0 189.5 -30.5t139 -87t86 -136t29.5 -177.5q0 -71 -14 -146t-44 -146.5t-77.5 -135.5t-115 -111.5t-156 -75.5t-201.5 -28q-114 0 -198.5 33t-139.5 91t-82 137.5t-27 171.5zM379 408 q0 -91 42.5 -141t110.5 -50q65 0 114.5 35t83 91.5t50.5 127.5t17 143q0 42 -10 77.5t-29.5 61t-47.5 40t-65 14.5q-63 0 -112.5 -36t-83.5 -93t-52 -128t-18 -142zM479 1186l315 325h289l-369 -325h-235z" />
<glyph unicode="&#xf4;" horiz-adv-x="1178" d="M61 408q0 74 15 150.5t46.5 147.5t80.5 133.5t117 109t155.5 73.5t196.5 27q107 0 189.5 -30.5t139 -87t86 -136t29.5 -177.5q0 -71 -14 -146t-44 -146.5t-77.5 -135.5t-115 -111.5t-156 -75.5t-201.5 -28q-114 0 -198.5 33t-139.5 91t-82 137.5t-27 171.5zM379 408 q0 -91 42.5 -141t110.5 -50q65 0 114.5 35t83 91.5t50.5 127.5t17 143q0 42 -10 77.5t-29.5 61t-47.5 40t-65 14.5q-63 0 -112.5 -36t-83.5 -93t-52 -128t-18 -142zM320 1186l303 327h250l168 -327h-197l-116 190l-197 -190h-211z" />
<glyph unicode="&#xf5;" horiz-adv-x="1178" d="M61 408q0 74 15 150.5t46.5 147.5t80.5 133.5t117 109t155.5 73.5t196.5 27q107 0 189.5 -30.5t139 -87t86 -136t29.5 -177.5q0 -71 -14 -146t-44 -146.5t-77.5 -135.5t-115 -111.5t-156 -75.5t-201.5 -28q-114 0 -198.5 33t-139.5 91t-82 137.5t-27 171.5zM379 408 q0 -91 42.5 -141t110.5 -50q65 0 114.5 35t83 91.5t50.5 127.5t17 143q0 42 -10 77.5t-29.5 61t-47.5 40t-65 14.5q-63 0 -112.5 -36t-83.5 -93t-52 -128t-18 -142zM317 1186q7 61 28.5 112.5t55 89t79 59t101.5 21.5q50 0 83 -13t60 -28t53 -28t60 -13q41 0 68.5 26.5 t34.5 74.5h155q-10 -72 -34 -125t-58.5 -88t-77 -52.5t-90.5 -17.5q-51 0 -86.5 13t-63 28t-52 28t-54.5 13q-25 0 -44 -8.5t-32 -22.5t-21 -32t-11 -37h-154z" />
<glyph unicode="&#xf6;" horiz-adv-x="1178" d="M61 408q0 74 15 150.5t46.5 147.5t80.5 133.5t117 109t155.5 73.5t196.5 27q107 0 189.5 -30.5t139 -87t86 -136t29.5 -177.5q0 -71 -14 -146t-44 -146.5t-77.5 -135.5t-115 -111.5t-156 -75.5t-201.5 -28q-114 0 -198.5 33t-139.5 91t-82 137.5t-27 171.5zM379 408 q0 -91 42.5 -141t110.5 -50q65 0 114.5 35t83 91.5t50.5 127.5t17 143q0 42 -10 77.5t-29.5 61t-47.5 40t-65 14.5q-63 0 -112.5 -36t-83.5 -93t-52 -128t-18 -142zM320 1325q0 30 12 55t33 42.5t49.5 27.5t61.5 10q34 0 62 -10t48.5 -28t31.5 -43t11 -54t-11 -54.5t-31 -44 t-48 -29.5t-63 -11q-34 0 -63 11t-49.5 30t-32 44.5t-11.5 53.5zM779 1325q0 30 11.5 55t32.5 42.5t49 27.5t61 10q34 0 62 -10t48.5 -28t31.5 -43t11 -54t-10.5 -54.5t-30.5 -44t-48.5 -29.5t-63.5 -11t-63.5 11t-48.5 30t-31 44.5t-11 53.5z" />
<glyph unicode="&#xf7;" horiz-adv-x="1450" d="M254 485v203h975v-203h-975zM602 182q0 29 10 55.5t28.5 46.5t44.5 32t58 12t57.5 -11t43.5 -30.5t27.5 -45.5t9.5 -57q0 -33 -12 -58.5t-31.5 -43t-44 -26.5t-50.5 -9q-29 0 -54.5 10.5t-45 28.5t-30.5 43t-11 53zM606 983q0 29 10 55.5t28.5 46.5t45 31.5t58.5 11.5 q31 0 56.5 -10.5t43.5 -29.5t27.5 -45t9.5 -58q0 -33 -12 -59t-31.5 -43.5t-44 -27t-49.5 -9.5q-29 0 -55 10.5t-45.5 29.5t-30.5 44t-11 53z" />
<glyph unicode="&#xf8;" horiz-adv-x="1178" d="M-20 53l135 127q-28 50 -41 107.5t-13 120.5q0 74 14.5 150t46 147t80 133.5t116 109.5t156 74t198.5 27q88 0 157 -22t123 -62l158 147l102 -121l-151 -143q55 -95 55 -230q0 -73 -14.5 -149t-45 -147.5t-78.5 -134.5t-115.5 -110t-155.5 -74.5t-199 -27.5 q-91 0 -163.5 22t-125.5 64l-137 -127zM344 428q0 -8 1 -15.5t1 -15.5l412 385q-40 43 -107 43q-73 0 -130 -32.5t-96.5 -87t-60 -126.5t-20.5 -151zM416 248q20 -22 49 -35.5t63 -13.5q75 0 131.5 32t94.5 87t57.5 128t19.5 154v18q0 10 -2 19z" />
<glyph unicode="&#xf9;" horiz-adv-x="1225" d="M66 244q0 15 3 40t7.5 52t9 52.5t8.5 43.5l125 592h318l-123 -578q-4 -16 -7.5 -34t-6 -35t-4 -31t-1.5 -22q0 -44 24 -70.5t70 -26.5q50 0 97 28t85 73t65.5 101t39.5 112l103 483h319l-147 -684q-9 -45 -17 -93.5t-14 -93.5t-10 -84.5t-6 -68.5h-320q3 29 6.5 59 t7.5 56.5t7 47.5t4 30h-4q-39 -49 -83.5 -89t-93 -68.5t-100 -44.5t-104.5 -16q-127 0 -192.5 70.5t-65.5 198.5zM458 1511h264l209 -325h-213z" />
<glyph unicode="&#xfa;" horiz-adv-x="1225" d="M66 244q0 15 3 40t7.5 52t9 52.5t8.5 43.5l125 592h318l-123 -578q-4 -16 -7.5 -34t-6 -35t-4 -31t-1.5 -22q0 -44 24 -70.5t70 -26.5q50 0 97 28t85 73t65.5 101t39.5 112l103 483h319l-147 -684q-9 -45 -17 -93.5t-14 -93.5t-10 -84.5t-6 -68.5h-320q3 29 6.5 59 t7.5 56.5t7 47.5t4 30h-4q-39 -49 -83.5 -89t-93 -68.5t-100 -44.5t-104.5 -16q-127 0 -192.5 70.5t-65.5 198.5zM523 1186l315 325h289l-369 -325h-235z" />
<glyph unicode="&#xfb;" horiz-adv-x="1225" d="M66 244q0 15 3 40t7.5 52t9 52.5t8.5 43.5l125 592h318l-123 -578q-4 -16 -7.5 -34t-6 -35t-4 -31t-1.5 -22q0 -44 24 -70.5t70 -26.5q50 0 97 28t85 73t65.5 101t39.5 112l103 483h319l-147 -684q-9 -45 -17 -93.5t-14 -93.5t-10 -84.5t-6 -68.5h-320q3 29 6.5 59 t7.5 56.5t7 47.5t4 30h-4q-39 -49 -83.5 -89t-93 -68.5t-100 -44.5t-104.5 -16q-127 0 -192.5 70.5t-65.5 198.5zM360 1186l303 327h250l168 -327h-197l-116 190l-197 -190h-211z" />
<glyph unicode="&#xfc;" horiz-adv-x="1225" d="M66 244q0 15 3 40t7.5 52t9 52.5t8.5 43.5l125 592h318l-123 -578q-4 -16 -7.5 -34t-6 -35t-4 -31t-1.5 -22q0 -44 24 -70.5t70 -26.5q50 0 97 28t85 73t65.5 101t39.5 112l103 483h319l-147 -684q-9 -45 -17 -93.5t-14 -93.5t-10 -84.5t-6 -68.5h-320q3 29 6.5 59 t7.5 56.5t7 47.5t4 30h-4q-39 -49 -83.5 -89t-93 -68.5t-100 -44.5t-104.5 -16q-127 0 -192.5 70.5t-65.5 198.5zM361 1325q0 30 12 55t33 42.5t49.5 27.5t61.5 10q34 0 62 -10t48.5 -28t31.5 -43t11 -54t-11 -54.5t-31 -44t-48 -29.5t-63 -11q-34 0 -63 11t-49.5 30 t-32 44.5t-11.5 53.5zM820 1325q0 30 11.5 55t32.5 42.5t49 27.5t61 10q34 0 62 -10t48.5 -28t31.5 -43t11 -54t-10.5 -54.5t-30.5 -44t-48.5 -29.5t-63.5 -11t-63.5 11t-48.5 30t-31 44.5t-11 53.5z" />
<glyph unicode="&#xfd;" horiz-adv-x="1102" d="M-160 -453l54 244q21 -15 52 -23t62 -8q59 0 110 27.5t89 89.5l82 129l-199 1018h332l72 -623q3 -34 4 -73v-19q0 -26 -2 -45h4q9 25 23 62t34 75l313 623h332l-651 -1114q-51 -89 -105.5 -161.5t-118.5 -123.5t-141.5 -78.5t-175.5 -27.5q-34 0 -81.5 6.5t-88.5 21.5z M467 1186l315 325h289l-369 -325h-235z" />
<glyph unicode="&#xfe;" horiz-adv-x="1214" d="M-86 -471l420 1987h319l-98 -461q-12 -57 -26.5 -110t-28.5 -95h4q28 42 63 78t77.5 63t93 42.5t108.5 15.5q68 0 124.5 -25t97 -73.5t63 -119t22.5 -161.5q0 -84 -18 -168.5t-53.5 -162t-89.5 -144t-126 -115.5t-162.5 -77t-199.5 -28q-40 0 -88 6t-82 15l-101 -467 h-319zM375 215q12 -4 28.5 -7t34 -5.5t34.5 -4t30 -1.5q74 0 135.5 36.5t105.5 97t68.5 139.5t24.5 163q0 35 -6.5 66.5t-22.5 55.5t-41.5 38t-63.5 14q-56 0 -101 -32.5t-79 -84t-57.5 -115t-36.5 -126.5z" />
<glyph unicode="&#xff;" horiz-adv-x="1102" d="M-160 -453l54 244q21 -15 52 -23t62 -8q59 0 110 27.5t89 89.5l82 129l-199 1018h332l72 -623q3 -34 4 -73v-19q0 -26 -2 -45h4q9 25 23 62t34 75l313 623h332l-651 -1114q-51 -89 -105.5 -161.5t-118.5 -123.5t-141.5 -78.5t-175.5 -27.5q-34 0 -81.5 6.5t-88.5 21.5z M285 1325q0 30 12 55t33 42.5t49.5 27.5t61.5 10q34 0 62 -10t48.5 -28t31.5 -43t11 -54t-11 -54.5t-31 -44t-48 -29.5t-63 -11q-34 0 -63 11t-49.5 30t-32 44.5t-11.5 53.5zM744 1325q0 30 11.5 55t32.5 42.5t49 27.5t61 10q34 0 62 -10t48.5 -28t31.5 -43t11 -54 t-10.5 -54.5t-30.5 -44t-48.5 -29.5t-63.5 -11t-63.5 11t-48.5 30t-31 44.5t-11 53.5z" />
<glyph unicode="&#x131;" horiz-adv-x="650" d="M79 217q0 22 2.5 49t6.5 56.5t9.5 60t11.5 58.5q4 17 13.5 62.5t22 104.5t26.5 124.5t26.5 124.5t22 104.5t13.5 62.5h320l-122 -576q-8 -35 -17 -78.5t-9 -75.5q0 -38 24 -53t55 -15q26 0 52.5 5.5t48.5 14.5q-13 -60 -25 -118.5t-25 -118.5q-18 -5 -41.5 -10t-50 -9.5 t-55 -7t-56.5 -2.5q-67 0 -114.5 17.5t-78.5 49t-45.5 75t-14.5 95.5z" />
<glyph unicode="&#x152;" horiz-adv-x="1876" d="M111 600q0 93 15 182.5t45.5 173t78 158t112.5 137.5q51 49 108 87.5t123 65t141.5 40.5t162.5 14q45 0 88.5 -3.5t82.5 -8t73 -8.5t61 -4h768l-57 -263h-502l-68 -323h467l-55 -264h-467l-69 -322h534l-55 -262h-723q-29 0 -63.5 -4t-71.5 -8.5t-75 -8.5t-75 -4 q-115 0 -220 40t-184.5 119t-127 195.5t-47.5 270.5zM453 592q0 -77 20 -139.5t57.5 -106.5t91.5 -68t123 -24q47 0 85 7t69 15l182 867q-28 14 -77.5 23.5t-124.5 9.5q-84 0 -156 -36.5t-125 -99.5q-33 -40 -60 -91.5t-45.5 -110t-29 -121.5t-10.5 -125z" />
<glyph unicode="&#x153;" horiz-adv-x="1778" d="M61 408q0 134 40.5 251t114.5 203.5t179 136.5t234 50q67 0 121 -14t97 -39t75.5 -59.5t56.5 -74.5h4q35 40 77.5 74.5t93 59.5t108.5 39t122 14q105 0 177.5 -26t117.5 -67.5t64.5 -93t19.5 -102.5q0 -79 -33 -145t-112 -114t-209 -75.5t-324 -30.5q-2 -6 -2 -11v-11 q0 -29 10 -59.5t34 -55.5t64 -41t101 -16q36 0 79 6.5t87 19t87.5 30t80.5 38.5l-49 -236q-59 -34 -143.5 -59t-190.5 -25q-73 0 -130.5 15t-101.5 40t-75 57.5t-49 66.5h-4q-65 -84 -165.5 -131.5t-217.5 -47.5q-115 0 -198 36.5t-136.5 97.5t-79 139t-25.5 160zM379 408 q0 -91 42.5 -141t110.5 -50q65 0 114 35t82 91.5t50 127.5t17 143q0 43 -9.5 78.5t-28 61t-46.5 39.5t-66 14q-63 0 -112.5 -36t-83.5 -93t-52 -128t-18 -142zM1106 590q98 -1 166 11.5t110 34.5t61 52t19 66q0 38 -27.5 63t-76.5 25q-42 0 -81.5 -17.5t-73.5 -50.5 t-59.5 -79.5t-37.5 -104.5z" />
<glyph unicode="&#x178;" horiz-adv-x="1245" d="M193 1434h350l114 -545q8 -34 9.5 -63t3.5 -52h2q11 28 24.5 57t28.5 54l350 549h363l-662 -914l-108 -520h-326l109 514zM437 1707q0 30 12 55t33 42.5t49.5 27.5t61.5 10q34 0 62 -10t48.5 -28t31.5 -43t11 -54t-11 -54.5t-31 -44t-48 -29.5t-63 -11q-34 0 -63 11 t-49.5 30t-32 44.5t-11.5 53.5zM896 1707q0 30 11.5 55t32.5 42.5t49 27.5t61 10q34 0 62 -10t48.5 -28t31.5 -43t11 -54t-10.5 -54.5t-30.5 -44t-48.5 -29.5t-63.5 -11t-63.5 11t-48.5 30t-31 44.5t-11 53.5z" />
<glyph unicode="&#x2c6;" horiz-adv-x="899" d="M215 1186l303 327h250l168 -327h-197l-116 190l-197 -190h-211z" />
<glyph unicode="&#x2da;" horiz-adv-x="899" d="M383 1372q0 56 21 97.5t55 69t77 41t87 13.5q54 0 98.5 -16t75.5 -44.5t48 -68t17 -86.5q0 -54 -21 -95t-55 -69t-78 -42.5t-90 -14.5q-49 0 -92 15t-74.5 43t-50 68t-18.5 89zM522 1376q0 -40 25 -67t71 -27q44 0 73.5 26t29.5 68q0 38 -27.5 66t-75.5 28 q-23 0 -41 -8.5t-30 -22t-18.5 -30t-6.5 -33.5z" />
<glyph unicode="&#x2dc;" horiz-adv-x="899" d="M217 1186q7 61 28.5 112.5t55 89t79 59t101.5 21.5q50 0 83 -13t60 -28t53 -28t60 -13q41 0 68.5 26.5t34.5 74.5h155q-10 -72 -34 -125t-58.5 -88t-77 -52.5t-90.5 -17.5q-51 0 -86.5 13t-63 28t-52 28t-54.5 13q-25 0 -44 -8.5t-32 -22.5t-21 -32t-11 -37h-154z" />
<glyph unicode="&#x2010;" horiz-adv-x="827" d="M119 436l47 221h547l-47 -221h-547z" />
<glyph unicode="&#x2013;" horiz-adv-x="1024" d="M-20 436l47 221h1024l-47 -221h-1024z" />
<glyph unicode="&#x2014;" horiz-adv-x="2048" d="M-20 436l47 221h2048l-47 -221h-2048z" />
<glyph unicode="&#x2018;" horiz-adv-x="596" d="M217 1008l213 444h199l-158 -444h-254z" />
<glyph unicode="&#x2019;" horiz-adv-x="596" d="M248 1008l158 444h251l-215 -444h-194z" />
<glyph unicode="&#x201a;" horiz-adv-x="596" d="M-16 -225l157 444h250l-213 -444h-194z" />
<glyph unicode="&#x201c;" horiz-adv-x="1010" d="M217 1008l213 444h197l-156 -444h-254zM633 1008l213 444h196l-157 -444h-252z" />
<glyph unicode="&#x201d;" horiz-adv-x="1010" d="M248 1008l158 444h251l-215 -444h-194zM662 1008l157 444h252l-215 -444h-194z" />
<glyph unicode="&#x201e;" horiz-adv-x="1010" d="M-16 -227l157 444h250l-213 -444h-194zM397 -227l158 444h252l-215 -444h-195z" />
<glyph unicode="&#x2022;" horiz-adv-x="864" d="M166 557q0 57 22 107t59.5 87t87 58.5t105.5 21.5q57 0 107.5 -21.5t88 -58.5t59.5 -87t22 -107t-22 -107t-59.5 -87.5t-88 -59.5t-107.5 -22q-56 0 -105.5 22t-87 59.5t-59.5 87.5t-22 107z" />
<glyph unicode="&#x2026;" horiz-adv-x="1872" d="M53 133q0 39 15 71.5t41 55t61 35t76 12.5q38 0 70.5 -12t56 -33t36.5 -49.5t13 -62.5q0 -39 -14.5 -70.5t-40 -54.5t-60.5 -35.5t-76 -12.5q-37 0 -69.5 12t-56.5 33t-38 49.5t-14 61.5zM676 133q0 39 15 71.5t40.5 55t61 35t75.5 12.5q39 0 71 -12t55.5 -33t36.5 -49.5 t13 -62.5q0 -39 -14.5 -70.5t-40 -54.5t-60.5 -35.5t-75 -12.5q-38 0 -70.5 12t-56.5 33t-37.5 49.5t-13.5 61.5zM1298 133q0 39 15 71.5t41 55t61 35t76 12.5q38 0 70 -12t55.5 -33t37 -49.5t13.5 -62.5q0 -39 -15 -70.5t-40.5 -54.5t-60 -35.5t-74.5 -12.5q-39 0 -71.5 12 t-56.5 33t-37.5 49.5t-13.5 61.5z" />
<glyph unicode="&#x2039;" horiz-adv-x="705" d="M57 537l373 340h285l-387 -357l247 -323h-262z" />
<glyph unicode="&#x203a;" horiz-adv-x="705" d="M-8 201l387 356l-248 324h262l256 -340l-373 -340h-284z" />
<glyph unicode="&#x2044;" horiz-adv-x="659" d="M-346 0l1196 1434h244l-1196 -1434h-244z" />
<glyph unicode="&#x2215;" horiz-adv-x="659" d="M-346 0l1196 1434h244l-1196 -1434h-244z" />
<glyph unicode="&#x20ac;" d="M43 455l35 170h112q4 38 8 78.5t13 80.5h-98l34 168h111q42 113 109.5 206t159.5 160t206.5 103.5t249.5 36.5q46 0 89.5 -5t81 -13t67.5 -18.5t49 -22.5l-53 -271q-23 19 -48.5 36.5t-55.5 31t-64.5 21.5t-75.5 8q-75 0 -138 -19.5t-113.5 -55t-89 -86t-65.5 -112.5h475 l-36 -168h-502q-9 -40 -14.5 -79.5t-8.5 -79.5h490l-35 -170h-449q10 -64 35 -111t61 -77.5t82.5 -45t100.5 -14.5q74 0 141.5 21t139.5 63l-46 -256q-71 -31 -139.5 -45.5t-146.5 -14.5q-117 0 -209 34.5t-158 97.5t-104 151.5t-47 196.5h-154z" />
<glyph unicode="&#x2122;" horiz-adv-x="1579" d="M162 1311v123h506v-123h-176v-539h-156v539h-174zM735 772v662h215l158 -453h4l168 453h203v-662h-150v445h-6l-158 -445h-135l-147 445h-4v-445h-148z" />
<glyph unicode="&#xe000;" horiz-adv-x="1025" d="M0 1025h1025v-1025h-1025v1025z" />
<glyph unicode="&#xfb01;" horiz-adv-x="1417" d="M10 -340l242 1131h-174l51 233h172l33 147q42 187 156.5 278t310.5 91q51 0 102.5 -8t85.5 -19l-49 -243q-28 11 -61.5 19.5t-65.5 8.5q-71 0 -109 -39t-57 -122l-24 -113h233l-49 -233h-238l-243 -1131h-316zM846 217q0 22 2.5 49t6.5 56.5t9.5 60t11.5 58.5 q4 17 13.5 62.5t22 104.5t26.5 124.5t26.5 124.5t22 104.5t13.5 62.5h320l-122 -576q-8 -35 -17 -78.5t-9 -75.5q0 -38 24 -53t55 -15q26 0 52.5 5.5t48.5 14.5q-13 -60 -25 -118.5t-25 -118.5q-18 -5 -41.5 -10t-50 -9.5t-55 -7t-56.5 -2.5q-67 0 -114.5 17.5t-78.5 49 t-45.5 75t-14.5 95.5zM1039 1337q0 39 14.5 70t40 53.5t60.5 34.5t76 12q38 0 70 -11.5t55.5 -32t37 -48.5t13.5 -61q0 -39 -15 -70t-40.5 -53.5t-60 -34.5t-74.5 -12q-38 0 -70.5 11.5t-56 32t-37 48.5t-13.5 61z" />
<glyph unicode="&#xfb02;" horiz-adv-x="1417" d="M10 -340l242 1131h-174l51 233h172l33 147q42 187 156.5 278t310.5 91q51 0 102.5 -8t85.5 -19l-49 -243q-28 11 -61.5 19.5t-65.5 8.5q-71 0 -109 -39t-57 -122l-24 -113h233l-49 -233h-238l-243 -1131h-316zM846 217q0 22 2.5 49t6.5 56.5t9.5 60t11.5 58.5 q3 13 13.5 63.5t26.5 124.5t35 164.5t39.5 185t39.5 185t35 164.5t26.5 124.5t13.5 63.5h320l-227 -1068q-8 -35 -17 -78.5t-9 -75.5q0 -38 24 -53t55 -15q26 0 52.5 5.5t48.5 14.5q-13 -60 -25 -118.5t-25 -118.5q-18 -5 -41.5 -10t-50 -9.5t-55 -7t-56.5 -2.5 q-67 0 -114.5 17.5t-78.5 49t-45.5 75t-14.5 95.5z" />
<glyph unicode="&#xfb03;" horiz-adv-x="2186" d="M1615 217q0 22 2.5 49t6.5 56.5t9.5 60t11.5 58.5q4 17 13.5 62.5t22 104.5t26.5 124.5t26.5 124.5t22 104.5t13.5 62.5h320l-122 -576q-8 -35 -17 -78.5t-9 -75.5q0 -38 24 -53t55 -15q26 0 52.5 5.5t48.5 14.5q-13 -60 -25 -118.5t-25 -118.5q-18 -5 -41.5 -10 t-50 -9.5t-55 -7t-56.5 -2.5q-67 0 -114.5 17.5t-78.5 49t-45.5 75t-14.5 95.5zM1808 1337q0 39 14.5 70t40 53.5t60.5 34.5t76 12q38 0 70 -11.5t55.5 -32t37 -48.5t13.5 -61q0 -39 -15 -70t-40.5 -53.5t-60 -34.5t-74.5 -12q-38 0 -70.5 11.5t-56 32t-37 48.5t-13.5 61z M778 -340l242 1131h-174l51 233h172l33 147q42 187 156.5 278t310.5 91q51 0 102.5 -8t85.5 -19l-49 -243q-28 11 -61.5 19.5t-65.5 8.5q-71 0 -109 -39t-57 -122l-24 -113h233l-49 -233h-238l-243 -1131h-316zM10 -340l242 1131h-174l51 233h172l33 147q42 187 156.5 278 t310.5 91q51 0 102.5 -8t85.5 -19l-49 -243q-28 11 -61.5 19.5t-65.5 8.5q-71 0 -109 -39t-57 -122l-24 -113h233l-49 -233h-238l-243 -1131h-316z" />
<glyph unicode="&#xfb04;" horiz-adv-x="2186" d="M1615 217q0 22 2.5 49t6.5 56.5t9.5 60t11.5 58.5q3 13 13.5 63.5t26.5 124.5t35 164.5t39.5 185t39.5 185t35 164.5t26.5 124.5t13.5 63.5h320l-227 -1068q-8 -35 -17 -78.5t-9 -75.5q0 -38 24 -53t55 -15q26 0 52.5 5.5t48.5 14.5q-13 -60 -25 -118.5t-25 -118.5 q-18 -5 -41.5 -10t-50 -9.5t-55 -7t-56.5 -2.5q-67 0 -114.5 17.5t-78.5 49t-45.5 75t-14.5 95.5zM778 -340l242 1131h-174l51 233h172l33 147q42 187 156.5 278t310.5 91q51 0 102.5 -8t85.5 -19l-49 -243q-28 11 -61.5 19.5t-65.5 8.5q-71 0 -109 -39t-57 -122l-24 -113 h233l-49 -233h-238l-243 -1131h-316zM10 -340l242 1131h-174l51 233h172l33 147q42 187 156.5 278t310.5 91q51 0 102.5 -8t85.5 -19l-49 -243q-28 11 -61.5 19.5t-65.5 8.5q-71 0 -109 -39t-57 -122l-24 -113h233l-49 -233h-238l-243 -1131h-316z" />
<glyph horiz-adv-x="774" d="M125 584l37 174h174l104 475l-200 -41l39 180l421 82l-149 -696h172l-37 -174h-561z" />
<glyph horiz-adv-x="846" d="M119 584l33 157l301 236q74 57 115.5 107t41.5 104q0 35 -25.5 55.5t-68.5 20.5q-28 0 -56.5 -6.5t-57 -17.5t-55 -25t-50.5 -29l47 207q40 23 103 42t139 19q65 0 114 -17.5t81.5 -48.5t48.5 -73t16 -90q0 -56 -21.5 -103.5t-60 -91t-90.5 -85t-113 -85.5l-131 -94 l-2 -4h336l-39 -178h-606z" />
<glyph horiz-adv-x="846" d="M147 610l39 176q16 -10 42 -19.5t56.5 -17.5t63.5 -13t64 -5q44 0 75 9t50.5 24.5t28.5 35t9 40.5q0 44 -36.5 68t-126.5 24h-105l37 168h107q42 0 75 9t55.5 24t34 34.5t11.5 40.5q0 35 -28.5 56.5t-90.5 21.5q-51 0 -102.5 -13.5t-92.5 -33.5l39 176q42 16 103.5 27.5 t124.5 11.5q60 0 109.5 -14.5t84 -41.5t53.5 -66t19 -87q0 -42 -15 -77.5t-42.5 -64t-65.5 -48.5t-84 -31v-4q74 -17 113 -66t39 -127q0 -44 -19 -91t-63 -85.5t-116 -63t-179 -24.5q-34 0 -73 3.5t-76 10t-68 15t-50 18.5z" />
<glyph horiz-adv-x="856" d="M85 759l30 152l453 522h276l-110 -518h110l-32 -156h-111l-39 -176h-213l37 176h-401zM306 915h215l57 278q5 19 12 40.5t13 41.5h-4q-11 -17 -27 -37t-29 -37z" />
</font>
</defs>
</svg>
